<?xml version="1.0" encoding="UTF-8"?>
<svg version="1.1" viewBox="0 0 1600 1600" width="500" height="500" xmlns="http://www.w3.org/2000/svg">
<path transform="translate(1263,124)" d="m0 0h15l25 1 26 4 21 6 19 8 19 11 13 9 10 8 10 9 6 5 7 8 8 8 11 16 9 17 8 22 4 20 2 29v26l-3 12-8 18-7 16-11 18-11 13-17 17-11 9-13 10-14 9-26 15-16 11-13 10-14 12-4 2v2h-2l-2 4-6 7-9 16-5 12-3 14v22l5 25 11 33 11 25 5 19 3 20 1 10v30l-4 23-6 21-8 22-12 20-13 19-3 4-5 1-4 7-9 10-14 10-16 9-20 9-24 8-25 5-17 2-15 1h-12l-25-2-24-4-33-8-52-13-36-7-22-3-16-1h-19l-24 2-26 5-23 7-22 10-17 10-17 12-13 11-8 7-10 9-31 31-9 11-9 10-9 11-13 14-18 22-7 7-7 8-15 16-8 8-9 7-14 10-15 9-16 8-25 9-23 5-9 1h-25l-21-3-22-6-15-6-15-8-17-12-15-14-7-7-12-18-9-17-7-21-3-18v-25l3-19 6-20 11-28 5-13 1-5v-35l-3-12-12-20-11-13-8-8-14-10-17-10-16-8-32-14-35-14-36-14-29-14-14-10-15-12-13-9-24-22-10-11-15-20-9-14-15-26-4-12-9-39-3-17v-52l7-29 7-19 10-21 16-26 10-11 9-11 6-7 8-7 10-9 18-12 17-9 22-8 26-6 14-2 16-1h14l23 2 17 4 26 8 25 12 14 8 16 11 14 11 14 12 13 12 18 18 9 11 12 14 8 10 14 14 11 9 17 13 15 10 27 9 9 1h13l16-3 10-5 10-8 6-8 6-11 4-11 2-13v-13l-2-29-5-34v-25l2-13 6-20 9-20 11-18 12-14 15-12 13-8 16-8 24-8 16-3h21l19 3 20 6 19 9 12 8 14 12 10 13 10 16 12 25 11 28 8 15 9 12 12 12 10 6 16 6 13 3h21l19-4 16-7 11-7 9-8 9-6 7-6 5-9 3-3 5-3 6-11 11-17 14-23 13-23 10-14 11-14 13-15 12-13 13-15 13-11 18-12 18-10 21-10 20-7 27-6z" fill="#F36C27"/>
<path transform="translate(196,301)" d="m0 0h14l23 2 17 4 26 8 25 12 14 8 16 11 14 11 14 12 13 12 18 18 9 11 12 14 8 10 14 14 11 9 17 13 15 10 27 9 9 1 3 4v2h-5l-1-3 1-2h-4l-1 6-20 1-5-1v-3h-2l-2-6v-4l-10 2h-15l-4 3v23l1 9 6 3-1 10-3 9v7l3 6 7 3h13l9-1 13 3 13 1 4 1 9 1 9 3 12 3 8 5 9 9 8 13 5 11 6 18 2 10v41l-2 7-5 10v12l11 13 2 3v13l-4 12-12 7-10 4-12 2-8 5-4 2-1 8 2 29 1 36v18l-1 8 11 9 8 10 2 20v18l1 34v6l2 3 7 2 3 8 2 9 1 18h2l6 7-1 8-3 5h-2l-2 4-12 12h-2v2h-2v2l-16 12-24 14-2 2-3 19-1 9v16l1 7v6l1 2-19 4-9 1h-25l-21-3-22-6-15-6-15-8-17-12-15-14-7-7-12-18-9-17-7-21-3-18v-25l3-19 6-20 11-28 5-13 1-5v-35l-3-12-12-20-11-13-8-8-14-10-17-10-16-8-32-14-35-14-36-14-29-14-14-10-15-12-13-9-24-22-10-11-15-20-9-14-15-26-4-12-9-39-3-17v-52l7-29 7-19 10-21 16-26 10-11 9-11 6-7 8-7 10-9 18-12 17-9 22-8 26-6 14-2z" fill="#993383"/>
<path transform="translate(586,404)" d="m0 0 2 2 3 14 2 2 5 28v30l-4 13-6 10-11 12-10 8-6 4-9 5-1 4 3 1 1 5 2 3 10 3 3-1 3 3 4 2h6l13 7h6l2 6-1 5-2 8v47l1 53 2 17 4 10 7 18 10 14 12 10 13 6 13 3 13-1 9-3 12-7 11-8 6-8 8-16 3 1-2 5-8 16-3 5-4 8-5 9-1 3 1 5 2 5v8l-1 2-2 33-2 9-1 9v15l-1 14-5 10-2 2-1 12-3 7 3-4 5-2 1-2 4-2 12-10 30-20 11-7 15-7 12-4 11-5 9-3 9-2 3-2 7-1 6-2 18-4 18-3 9-1 11-1 19 2-5-5-3-7-15-9-10-5-6-4-3-5 1-10 5-4h8l9 4 10 1 28-2h5v-2l6-1v-3l15-4 16-8 11-10 10-16 3-13v-9l-3-12-4-9 1-4 4 3v2h2l1 5 3 1 5 13 2 7 6 3 1-1 2-8 1-9 2-2 1 52 2 9 2 3 9 3 4 2h13l7-3 7-9 4-11 2-26 2-7 11-11 5-3h12l7 2 7 12 1 3 1 33 2 8 4 6 8 5h19l9-6 4-8 1-6v-30l-2-16-5-15-7-11-8-9-12-7-12-4-12-2-16-1v-7l-11 1-2-4v-26l1-28 1-18v-3h2l6 10 2 4 4 2v2l7 1 3 11 7 3 2 6 7 3v2l4 2 3 3 11 2 4 3 16 2h13l13-5 2-3 1-8v-22l5-1 2 5 2 16 3 7v2l4 2v9h2l2 22 1 18 1 81 3 11 1 4 5 2 8 4 4 1h15l5-2 6-7 2-4 3-3 1-4 1-67 3-14 1-8h2l1-8 2-10 1-7-1-15 1-6-3-14-2-13v-2h-3l-2-5-3-3v-4l-3-1v-2h-2v-3l-6-1-5-3-21-2-5-1-4-4-1-7 3-23 3-14 3-9 7-15 7-11 9-10 5-2 1-3 10-8h2v-2l11-7 9-5 13-6 7-3 22-6 22-2h15l19 3 12 3 16 6 6 4-2 4-7 1-5 3-8 4-5 5-5 3-5 6h-3l-2 4-4 4-10 4-5 3-7 4-5 5-8 2-6 9-6 3-6 1-2 6-4 6-6 7-7 5-4 6-3 2-3 7-2 10-1 31-1 22v9l4 10 6 8 3 6-1 9 3 10 1 3-3-1-6-16-1-1 1 7 5 10 7 10 3 2v2l3 1 4 6 2 10 2 4 3 24 2 31v30h-2v7l-2 7-4 9-5 13-4 6-1 4h-2l-2 5-5 8-5 5-2 3h-2l-2 4-6 7-4 6h-2l-2 4-2 3h-2v2l-10 8-5 5h-2v2l-5 5-7 5-4 4-19 8-21 7-25 5-17 2-15 1h-12l-25-2-24-4-33-8-52-13-36-7-22-3-16-1h-19l-24 2-26 5-23 7-22 10-17 10-17 12-13 11-8 7-10 9-31 31-9 11-9 10-9 11-13 14-18 22-7 7-7 8-15 16-8 8-9 7-14 10-15 9-16 8-25 9h-6v-9l-1-5v-18l3-20 2-7 10-7 16-9 13-10 3-1v-2h2v-2l8-7 5-5 3-4h2l2-5 1-8-5-5v-2h-2l-2-18-2-9-2-7-8-3-2-3v-15l-1-28v-16l-2-19-9-11-10-8 1-8v-26l-1-32-2-29 2-5 5-3 7-4 12-2 11-5 10-5 4-12v-13l-9-11-4-5v-12l6-12 1-5v-41l-4-17-6-16-7-13-7-9-7-7-9-4-15-4-8-2h-6l-7-1-16-3-6-1-11 1h-10l-8-4-3-6v-7l3-9 2-10-5-1-2-2-1-9v-23l5-4h15l10-1 2 10h2v3h25v-2l-2-1 3-3h4l1 4 2-1 1-1-3-2 22-2 13-4 13-9 8-10 6-11 5-13h2l3-15 2-22z" fill="#F3412D"/>
<path transform="translate(590,407)" d="m0 0 13 7 3 4v5l9 2 4 3 16 1 12 4 11 5 17 4 39 3-5-9-2-4 4-4 14-2h13l12 1 8 4 3 3 5 2 1 4-5 2 1 3 14 1 2-1h9l27 3 4 2v2l3 1 9 12 1 6 3 1v2l5 2 8 4 6 2 19 1 13 1 6 3 3 2h6v-3l6-2 14-1 9 2 9 8 5 5 3 5 3 3 1 2v6l-6 5 1 12 2 4 7 1h28l3-3 2-5 3-4h3v-2l2-1 2-6h2l1-4 2 12 1 25 1 70 1 31 2 7 1-172 2-9 6-7 8-4h12l10 4 7 6 1 96v80l14-7 9-2h16l16 3 14 6 9 7 7 8 6 10 5 15 2 16v30l-2 9-6 8-7 4h-19l-9-6-5-8-1-12-1-27-6-11-1-4-7-1h-12l-8 6-7 7-2 7-2 26-4 11-7 9-4 3-4 1h-13l-8-4-6-2-3-5-1-11-1-46-2 14-1 6-7-3-3-3-2-8-4-11-3-3v-3h-2v-2l-4-2 1 5 5 13 1 6v9l-3 13-11 17-11 10-16 8-10 3h-5v3l-6 1v2l-7 1-29 2-9-2-9-3h-6l-4 3-1 10 2 5 5 2 8 5 12 6 7 5 5 10 4 3-22-2-15 2-12 1-30 6-4 2-9 2-7 2-8 3-14 5-10 4-12 5-14 8-21 14-14 10-10 8-4 3-3 2-4 2v2l-3 1 2-7 1-3 1-10 4-5 3-7 1-19v-16l2-5 2-21 1-19 1-2v-8l-3-7v-5l4-6 3-5 3-7 5-8 4-9 4-7v-2h-2l-8 17-8 9-17 11-8 4-12 2-12-1-12-4-11-6-12-11-9-14-6-16-4-10-2-17-1-53v-47l2-8 1-5-1-5h-6l-13-7h-6l-8-5-4 1-9-4-3-6v-2l-2-1 1-5 9-5 10-7 12-11 8-11 5-12 1-5v-30l-5-28-2-2-1-7z" fill="#F35535"/>
<path transform="translate(1263,124)" d="m0 0h15l25 1 26 4 21 6 19 8 19 11 13 9 10 8 10 9 6 5 7 8 8 8 11 16 9 17 8 22 4 20 2 29v26l-3 12-8 18-7 16-11 18-11 13-17 17-9 7-5-10-9-2-3-3-6-2-3-3h-3l-8-4-6-1-3 2v-2l-17-1h-11l-14 3-12 1-11 4-10 3-8 3-16 8-12 7-13 8-10 5-12-2v-1l6-2-5-1 1-5h-3l-4 6-17-2-8-3-11-11-6-3-7-1-4-1h-3l-1-7-5 1v-3h2v-2h-6l-4-3-4-4h-3l-5-1 1-2-8-4-4-1-1 2-2-1v2h-4v-3l-5 1-1-1h-7l-3 2-7 2-5 2-11-1-4-6 1-5 7-10 5-6h2l2-5 7-7 7-9 10-19 6-10 4-7 6-9 6-12 5-11 5-12 9-16 5-6 5-9h2l2-5 6-8 6-10 5-12 1-10-10-1-6-2-3-3-4-2-7 1h-9l-5 1-1 3-9 2h-2l4-8-6 1-10 9-4 3h-6-3l12-13 7-8 15-12 19-12 27-14 23-9 26-6 13-2z" fill="#F6922C"/>
<path transform="translate(586,404)" d="m0 0 2 2 3 14 2 2 5 28v30l-4 13-6 10-11 12-10 8-6 4-9 5-1 4 3 1 1 5 2 3 10 3 3-1 3 3 4 2h6l13 7h6l2 6-1 5-2 8v47l1 53 2 17 4 10 7 18 10 14 12 10 13 6 13 3 13-1 9-3 12-7 11-8 6-8 8-16 3 1-2 5-8 16-3 5-4 8-5 9-1 3 1 5 2 5v8l-1 2-2 33-2 9-1 9v15l-1 14-5 10-2 2-1 12-3 7 3-4 5-2 1-2 4-2 12-10 30-20 11-7 15-7 12-4 11-5 9-3 9-2 3-2 7-1 6-2 18-4 18-3 9-1 11-1 18 2 16 4 23 8 27 13 13 8 13 9 13 11 10 9 6 5 1 5h2l3 3 19 7 1 2-15 2h-11l-44-11-36-7-22-3-16-1h-19l-24 2-26 5-23 7-22 10-17 10-17 12-13 11-8 7-10 9-31 31-9 11-9 10-9 11-13 14-18 22-7 7-7 8-15 16-8 8-9 7-14 10-15 9-16 8-25 9h-6v-9l-1-5v-18l3-20 2-7 10-7 16-9 13-10 3-1v-2h2v-2l8-7 5-5 3-4h2l2-5 1-8-5-5v-2h-2l-2-18-2-9-2-7-8-3-2-3v-15l-1-28v-16l-2-19-9-11-10-8 1-8v-26l-1-32-2-29 2-5 5-3 7-4 12-2 11-5 10-5 4-12v-13l-9-11-4-5v-12l6-12 1-5v-41l-4-17-6-16-7-13-7-9-7-7-9-4-15-4-8-2h-6l-7-1-16-3-6-1-11 1h-10l-8-4-3-6v-7l3-9 2-10-5-1-2-2-1-9v-23l5-4h15l10-1 2 10h2v3h25v-2l-2-1 3-3h4l1 4 2-1 1-1-3-2 22-2 13-4 13-9 8-10 6-11 5-13h2l3-15 2-22z" fill="#CD2C68"/>
<path transform="translate(594,429)" d="m0 0 2 2 3 13 2 18v11l-2 10-3 9v12h4l1 4 3 3 5 1 1 4 8 2 2 1-1 2h-2l1 3 4-1 8 4 6 2 2 1v2l3-1v2l3-1v2l11-1h7l3-2 3-1v-4l2-2 4-1 1-5 3-1v2l3 1 2 5 4 1 5 3 4 1 3 6 2 6 2 5 4-1 1-3 3-1 2 2-1 2 5-1 5 2 5-1 6 4 1 4-1 2-1-3-2 1 1 5 3 1v2l7 4-2-4 4 2 5 4-1 2-2-1-1 2h5l-1 7h2l1 3 4 2v2l-2 1-1 3h6l1-7-1-3 1-5v-3l5-2 1 2 6-9 2 1-2 6-3 6-1 34v128l3 10 3 3 11 4 7-1 15-5 7-8 2-11v-95l-1-49-1-16-4-6-3-4 4 1 4 3 4 8 3 19 3 9 2 5 2 1 3 5 3 1 5 1 1-3 4-1 2-4 2 15 4 14 4 8 4 4v2l6 2 4 5 5 5 16 10 16 8 7 3 5 4 14 8 4 5v10l-3 6-4 5-9 4-13 1-9-3-12-9-9-6-3-1h-15l-9 4-4 5-3 7v9l6 8 11 11 14 8 13 4h42v2l-6 1v2l-7 1-29 2-9-2-9-3h-6l-4 3-1 10 2 5 5 2 8 5 12 6 7 5 5 10 4 3-22-2-15 2-12 1-30 6-4 2-9 2-7 2-8 3-14 5-10 4-12 5-14 8-21 14-14 10-10 8-4 3-3 2-4 2v2l-3 1 2-7 1-3 1-10 4-5 3-7 1-19v-16l2-5 2-21 1-19 1-2v-8l-3-7v-5l4-6 3-5 3-7 5-8 4-9 4-7v-2h-2l-8 17-8 9-17 11-8 4-12 2-12-1-12-4-11-6-12-11-9-14-6-16-4-10-2-17-1-53v-47l2-8 1-5-1-5h-6l-13-7h-6l-8-5-4 1-9-4-3-6v-2l-2-1 1-5 9-5 10-7 12-11 8-11 5-12 1-5v-30l-3-16z" fill="#E22C4F"/>
<path transform="translate(74,362)" d="m0 0h8l3 1 5 9 3 11 4 35v14l-2 21v10l4 6 7 8 4 10 2 16 4 6 9 7 8 9v2h2v2h2l3 3v2h2v2l4 2 16 15 10 11v2h2l6 7 16 14 6 7 6 3 6 2 4 3v2h2l6 10 5 5 4 8 4 3v2l3 1v2l3 1 5 6 3 2v2h2l7 8 5 5 7 8 2 9 1 12 5 9v6l-3 3-1 3 2 1-4 4-1 15 4 16 5 9 9 10 14 10 11 6v5l-6 5-2 5 1 5 2 5 5 2 4 4 5 3 5 7v2h2l2 12v3l-4-5-8-11-9-10-10-9-17-11-16-9-29-13-47-19-36-14-29-14-14-10-15-12-13-9-24-22-10-11-15-20-9-14-15-26-4-12-9-39-3-17v-52l7-29 7-19 10-21 16-26 10-11 4-5 12-2z" fill="#536ABE"/>
<path transform="translate(104,329)" d="m0 0h5l2 5-1 7 4 1 4 5 3 11v22l-3 7-5 7-4 11 2 7 6 5 6 9 5 3 13 3 4 4v3l3 1 6 9 11 14 7 7 8 7 4 11 3 9 11 14 5 5v2l4 2 7 4 14 7 7 6 9 3 5 2 3 4 3 9 2 10 3 10 8 18 4 6 6 2h2v-3h2v-3h2l2-6 6-10 3-1 1-7 1-3 5-5h2l1-2 9-1-4 5 19-9 8-2h20l9 2 4 2 12 3 10 6 8 4v2l4 2 7 8 4 7v11l-5 10-7 5-6 2h-10l-10-6-13-11-3-2h-7l-17 4-2 3-1 6v9l3 7 5 6 13 8 24 12 11 6 14 10 8 8 6 10 4 10 2 9v20l-3 16-5 10-7 9h-2v2l-4 1-1 3-14 9-13 5-16 3h-21l-20-4-14-8-12-9-7-7-6-10-4-12-1-11 1-10 3-5 1-5 3-1-2-8-4-8-1-14-4-9-6-6v-2l-4-2-6-6v-2h-2l-5-5-4-5-5-4v-2l-4-2-4-6-3-5v-2l-3-1-5-8v-2h-2l-5-5-9-3-8-7-5-6-8-7-9-8v-2h-2l-9-11-10-10-8-7-3-2v-2h-2v-2l-3-1v-2h-2v-2h-2l-6-8-9-8-5-5-2-3-2-16-4-10-9-10-2-4v-10l2-21v-14l-4-35-4-13-3-5v-2h-11l-8 4-11 1 3-5 7-8 8-7 10-9 8-3 5-4 7-2z" fill="#695BB7"/>
<path transform="translate(586,404)" d="m0 0 2 2 3 14 2 2 5 28v30l-4 13-6 10-11 12-10 8-6 4-9 5-1 4 3 1 1 5 2 3 10 3 3-1 3 3 4 2h6l13 7h6l2 6-1 5-2 8v47l1 53 2 17 4 10 7 18 10 14 9 8h-3l-11-10-1-4-7-2-5-5-9 2-5 1-4 1 1 10 3 3 2 6v8l4 2 5 5 2 4h2v2h2l1 4v11l2 7h2l4 5 4 15 3 15 3 9v18l-4 20-3 9v10l4 13 2 7 5 6 2 8-1 11-6 12-3 10-7 8-10 16-7 12-6 10-10 15-3 6v9l7 6h3l1 6h5l1 5 2-1 4 1 1-2 13-4 11-9 8-4 4-3h2l1-4 5-9 5-5h9l-6 8-13 14-10 13-8 8-7 8-15 16-8 8-9 7-14 10-15 9-16 8-25 9h-6v-9l-1-5v-18l3-20 2-7 10-7 16-9 13-10 3-1v-2h2v-2l8-7 5-5 3-4h2l2-5 1-8-5-5v-2h-2l-2-18-2-9-2-7-8-3-2-3v-15l-1-28v-16l-2-19-9-11-10-8 1-8v-26l-1-32-2-29 2-5 5-3 7-4 12-2 11-5 10-5 4-12v-13l-9-11-4-5v-12l6-12 1-5v-41l-4-17-6-16-7-13-7-9-7-7-9-4-15-4-8-2h-6l-7-1-16-3-6-1-11 1h-10l-8-4-3-6v-7l3-9 2-10-5-1-2-2-1-9v-23l5-4h15l10-1 2 10h2v3h25v-2l-2-1 3-3h4l1 4 2-1 1-1-3-2 22-2 13-4 13-9 8-10 6-11 5-13h2l3-15 2-22z" fill="#BA3578"/>
<path transform="translate(196,301)" d="m0 0h14l23 2 4 2-3 3-5 1h-16l-7 3-3 8 1 9 3 12 2 11h2v2l14 3 15 5 16 8 10 6 13 9 10 8 6 5 5 5 1 3 4 2 7 6 5 5 8 7 40 40 9 7v2l4 2 3 4 1 4 3 2v2h2l1 4-5 3h-15l-2 2v11l1 4v18l2 12 2 4v6l-7-2h-9l-6-1h-12l-6-1h-2v2h-6l-2 1-2 5-4 3-10 2-5 5-3 4-2 7-3 2-5 9-3 6h-2v3h-2v3l-4 1-5-3-5-8-8-18-3-10-2-11-4-9-5-2-9-3-9-7-12-6-7-4-12-12-10-14-5-16-6-7-8-7-7-8-11-15-3-3-3-5-4-2-12-3-5-4-7-10-5-5-1-5 5-13 6-8 1-4v-23l-4-12-3-3-3-1v-7l-2-4-5 1-9 3-4 4-4-1 15-10 17-9 22-8 26-6 14-2z" fill="#8554B0"/>
<path transform="translate(1457,491)" d="m0 0h25l22 4 21 7 21 11 12 9 12 11 7 8 11 15 8 16 4 14v29l-6 16-6 9-5 5-6 5-12 6-10 3-7 1h-12l-16-2-19-6-20-9-20-11-21-13-14-8-17-7-15-3-18-1-14 1h-10l-1-2v-10l3-18 5-13 17-25 12-12 18-12 14-8 27-8z" fill="#F27A26"/>
<path transform="translate(584,312)" d="m0 0h19l5 3 4 17 5 6 1 10 2 1 5 13 4 13 2 7h2l4 8 5 4 9 1 12-1v-2l3-2 18-2 14-1 3-1v-15l3-3 6-1h25l10-1h13l1-1h8l4 4 1 3 6 2 9 1v-5l2 1v13l5 9 6 7 7 4v2l7-2v2l3-1 4 2 3-1v2h4l1 3 5 5v3h2v2l4 1 1 3 7 1v2h12v2l12 1 6 1h37v-2h4l2 2 13 1 8 3 10 7 4 8 6 3 14 1h23l5 3 9-2h13l11 2 4 2 1 4 10 1 4 5 2 9v16l2 37v17l-1 16v48l1 4 1-12 2-5 1-14 1-27 1-6 4 2 7 11 7 6 4 3-7-1-7-8-5-8-1 1-1 20-1 36v18l3 1h9l1 5-1 3-9 2-12 6h-2l-2-176-8-6-8-3h-12l-8 4-5 6-2 9-1 193h-1l-1-21-2-7-1-41-1-69-1-18-2-6h-2l-1 6-3 1v2h-3l-6 12-2 1h-28l-7-1-3-5-1-12 6-5v-6l-1-4-3-1-5-8-9-7-4-3-14-1-9 1-4 1v3l-6 1-6-4-11-2h-11l-14-1-9-4-9-5-4-5-3-7-6-7-3-3v-2l-20-3-14-1h-6l-3 1-13-1-1-4 4-3v-3l-6-2-5-4-5-2-12-1h-13l-14 2-3 3 6 11v2l-27-1-17-2-15-4-10-5-10-3-16-1-4-3-9-3-2-7-6-4-6-3h-3l-4-19-3-27-1-26v-17z" fill="#F36437"/>
<path transform="translate(419,746)" d="m0 0 1 3 12 2 5 5 4 11 4 9 2 3 8 38v6l-6 3-2 6-1 22 2 3 3 1h27l-1 4-4 5-5 6-5 3-5 6-11 7-13 9-7 6h-2l-2 4-8 7-5 5-1 2h-2l-2 4-7 10-8 16-3 8-3 14v19l4 18 5 13 5 10 8 11v2h2l5 10-1 8-4 10-6 5-7 6-3 9 1 6-4 11-10-6-10-8-12-11-8-8-12-18-9-17-7-21-3-18v-25l3-19 6-20 11-28 5-13 1-5v-35l-3-12-5-8-1-5-1-12h-2l-6-9-8-5v-2l-5-2-4-6 1-7 3-4h2l1-3h2v-4l13 2 7 1h21l16-3 13-5 11-7 6-5h2v-2l5-5z" fill="#7646A5"/>
<path transform="translate(1102,202)" d="m0 0 1 3-2 5-4 5-1 5-10 14-7 10-2 4h-2l-2 6-7 9-5 12-8 10-2 4h-2l-1 6-6 21-6 9-5 4-10 5-7 8-11 11-7 8-8 6-8 3-4 6-2 5-9 3h-35l-8-1-9 3h-16l-9-3-10-6-6-4-6-8-10-8-8-4-5-7-4-11-4-15-6-7-7-17-3-12-5-5-8-7-3-3-1-4-2-9v-2l-3-6-10-7-24-13-9-5-10-3-6-1h-52l-8 1h-14l-10 2-3 3-3 1-1 6 5 10 5 4 1 3 11 2h8l5-1h28l18 4 12 5 11 7 10 10 7 11 3 9 5 22 2 5 1 7 2 5 4 21 2 10v9l-3 1-10-2-3-2-2-5-2-1h-8l-4 1h-13l-13 1h-20l-6 2-1 1v15l-4 2-26 2-9 2v2l-14 2-7-1-6-5-3-6v-2h-2l-6-15-3-10-4-9-2-10-5-6-3-12v-5l-5-2h-18l-3 9v23l2 29 3 20 3 15-1 4-3-8-3 29-3 8h-2l1-11v-13l-2-29-5-34v-25l2-13 6-20 9-20 11-18 12-14 15-12 13-8 16-8 24-8 16-3h21l19 3 20 6 19 9 12 8 14 12 10 13 10 16 12 25 11 28 8 15 9 12 12 12 10 6 16 6 13 3h21l19-4 16-7 11-7 9-8 9-6 7-6 5-9 3-3 5-3 6-11 11-17 14-23 13-23 10-14 11-14 13-15z" fill="#F47F4D"/>
<path transform="translate(1154,255)" d="m0 0 2 2-5 7-3 6-6 13-3 11v4l23 1h7l11 1 6-2 1-7 1-5 2-2 8 1 3 10 2 9 1 9 4 4 7 5 9 2v2l9 2 7 6 4 4v2l8 4v2l4 2 5 3h3v2l8 1 16 4 8 6 17 7 10 2h13l17 3h15l4-1 4-4 2-1 1-4 4-3h2l11-16h4l1-3 6-1h8l11 4 4 2h3l4 3 6 2h3l5 1 1 2v6l-1 5h-2l-4 8-1 4-5 9h-2l-2 5-1 2h-2l-2 5-5 6-3 5-4 7-4 10-5 3-1-4-3-6-9-2-3-3-6-2-3-3h-3l-8-4-6-1-3 2v-2l-17-1h-11l-14 3-12 1-11 4-10 3-8 3-16 8-12 7-13 8-10 5-12-2v-1l6-2-5-1 1-5h-3l-4 6-17-2-8-3-11-11-6-3-7-1-4-1h-3l-1-7-5 1v-3h2v-2h-6l-4-3-4-4h-3l-5-1 1-2-8-4-4-1-1 2-2-1v2h-4v-3l-5 1-1-1h-7l-3 2-7 2-5 2-11-1-4-6 1-5 7-10 5-6h2l2-5 7-7 7-9 10-19 6-10 4-7 6-9 6-12 5-11 5-12 9-16z" fill="#F5852A"/>
<path transform="translate(593,422)" d="m0 0 2 1 4 9 5 5h6l6 2v2h15l10 2 13 2 10 4 6 1 3 1 12 1 18 4 9 4 4 4 2 13v9l2 7-4 3 2 5h2l1 3 4 1h3l2 3 6 1 4-2h5v-3l4-1 2-5 3-3h2v-2h2l3-7 2-3h3l2-6 5-6 10-6 4-1h11l7 3 8 7 6 7 1 3v15l-4 10-4 5-2 2v2h-2l-2 5-6 3-10 3h-2l1 4h3l1 10h-2l-2 4-1 4v2l10 1 5 3 8 7 3 5 1 16 1 53v93l-2 9-8 9-18 6-6-1-10-4-4-5-2-8v-130l1-32 5-10-1-1-6 8-2-1 1-2-5 2 1 8v3l-1 8-7-1v-5l3 1v-2l-5-1v-4h-2l1-7h-5l1-3h2l-7-5 1 3-5-2-5-5-2-6h3l1 1-1-4-5-3-8 1-4-2h-3l-1-3-2 4-1-1-1 2-5-1-3-9-4-8-5-1-4-3-4-1-2-5-3-2-3 6-5 2v4l-2 2-4 2h-19l-6-2v-2l-10-3-7-3-3 1-3-6 4 1-1-1-8-2-2-4-7-3-2-4 1-2h-4l-1-7 1-8 3-9 1-7v-13l-2-16-4-15z" fill="#EB4F4C"/>
<path transform="translate(759,994)" d="m0 0h19l10 5 6 9 4 8 4 17 2 18 1 16v18l-3 25-5 20-8 20-7 12-8 11-15 14-10 8-10 6-15 6-15 3h-12l-15-3-9-4-10-6-9-9-8-14-3-10-1-8v-16l3-18 5-16 7-16 9-16 11-15 8-10 11-13 16-16 14-11 13-8 12-5z" fill="#A33987"/>
<path transform="translate(33,395)" d="m0 0 2 2v7l-3 8-5 5-3 1-2 7 10 10 4 28 6 26 6 16 8 16 8 14 9 13 10 15 9 14 7 7 7 11 7 8 12 17 9 11 7 9v2l4 2 14 8 15 4 7 4 3 9 12 5 10 9 6 7 4 2 4 12 7 8 6 4-1 5-12 5-26 10-15 5-1 2-5-1-24-10-21-11-12-9-14-11-13-9-24-22-10-11-15-20-9-14-15-26-4-12-9-39-3-17v-52l7-29 7-19 10-21z" fill="#3995CF"/>
<path transform="translate(489,566)" d="m0 0h33l17 3 10 5 10 10 8 13 5 11 6 18 2 10v41l-2 7-5 10v12l11 13 2 3v13l-4 12-12 7-6 2h-15l-7-7v-2l-12 3-17 2h-20l-13-4-11-7-13-13-4-7-7-14-4-14-2-12v-31l3-19 3-14 4-8 5-15 7-11 8-7 12-5 5-4z" fill="#FBFBFB"/>
<path transform="translate(1025,464)" d="m0 0h12l10 4 7 6 1 96v80l14-7 9-2h16l16 3 14 6 9 7 7 8 6 10 5 15 2 16v30l-2 9-6 8-7 4h-19l-9-6-5-8-1-12-1-27-6-11-1-4-7-1h-12l-8 6-7 7-2 7-2 26-4 11-7 9-4 3-4 1h-13l-11-6-3-6-1-6-1-18-1-42v-196l2-9 6-7z" fill="#FBFBFB"/>
<path transform="translate(337,554)" d="m0 0h20l9 2 4 2 12 3 10 6 8 4v2l4 2 7 8 4 7v11l-5 10-7 5-6 2h-10l-10-6-13-11-3-2h-7l-17 4-2 3-1 6v9l3 7 5 6 13 8 24 12 11 6 14 10 8 8 6 10 4 10 2 9v20l-3 16-5 10-7 9h-2v2l-4 1-1 3-14 9-13 5-16 3h-21l-20-4-14-8-12-9-7-7-6-10-4-12-1-11 1-10 5-5 10-5 4-1h9l6 2 7 10 7 11 3 3v2h2l4 4 8 4 7 2h12l8-4 7-6 3-7 1-13h-2l-2-6h-2l-4-6-9-7-10-5-5-4-3-1v-2l-5-1-9-6-11-6-16-13-9-13-3-5-4-13-1-14 3-13 6-11 6-7 1-5 13-9 17-8z" fill="#FBFBFB"/>
<path transform="translate(479,872)" d="m0 0h7l1 2-4 5 1 6 3 5 8 3 1 2 2 32 1 27 2 23 3 9h2l1-6 1-7h3l4 13 3 17 2 7 1 24-2 22-3 12-2 2-11 2-14 1h-22l-16-3-19-8-14-8-6-4-7-8-7-9-7-11-6-18-2-11v-19l3-14 1-5h2l1-6 9-16 8-11h2l2-5 10-9 8-7 5-4 10-7 12-8 8-3 10-5z" fill="#A753A1"/>
<path transform="translate(812,1423)" d="m0 0h72l38 1 26 2 40 8 35 8 2 1v9l-14 6-21 6-32 5-42 4-35 2h-161l-42-2-53-4-21-3-16-5-21-8-4-3v-2l9-4 5-3 25-6 28-5 26-3 31-2 35-1z" fill="#D0C9CB"/>
<path transform="translate(545,755)" d="m0 0 9 3v1l-7 2-8 4-3 2-1 8 2 29 1 36v18l-1 8 11 9 8 10 2 20v18l1 34v6l2 3 7 2 3 8 2 9 1 18h2l6 7-1 8-3 5h-2l-2 4-12 12h-2v2h-2v2l-16 12-24 14-2 2-3 19-1 9v16l1 7v6l1 2-19 4-9 1h-25l-21-3-22-6-15-6-13-7-1-4 3-10-1-6 4-8 7-6 5-4 5-13-1-7-3-6v-2h-2l-11-16-1-4 4 4 7 10 4 5 3 2v2l5 2 13 8 16 7 5 2 16 3h22l20-2 6-2 3-12 2-26-1-20-2-7-3-17-3-13h-3v11l-2 3-3-1-3-9-2-23-1-27-2-34-8-2-5-9 1-4 3-5-3-2 17-5 12-2 17-3 5-5 1-3v-40l-2-22-2-7-5-7-4-11 2-5 3-2 8-2z" fill="#B44592"/>
<path transform="translate(207,355)" d="m0 0h11l17 5 11 5 14 7 15 10 13 10 7 6 5 5 1 3 4 2 7 6 5 5 8 7 40 40 9 7v2l4 2 3 4 1 4 3 2v2h2l1 4-5 3h-15l-2 2v11l1 4v18l2 12 2 4v6l-7-2h-9l-6-1h-12l-6-1h-2v2h-6l-2 1-2 5-4 2-5-10-8-12-9-24-6-7-16-12-8-10-8-11-16-16-2-3-2-13-3-11-7-14-6-4-12-4-10-9-4-5-8-5-10-2-7-3-7-2v-2l-6-1v-3l-2-1 1-4 5-5 5-4 16-4 17-2z" fill="#A753A1"/>
<path transform="translate(623,556)" d="m0 0 10 2 9 5 4 4 3 13v27l-1 28v41l3 15v5h2l5 9 4 2h9l5-3 6-9 2-5 1-7v-108l5-10 7-4 4-1h20l8 5 3 7v88l-2 24-3 18 4 1-1 8-3 5-5-2-8 17-8 9-17 11-8 4-12 2-12-1-12-4-11-6-12-11-9-14-6-16-4-10-2-17-1-53v-47l2-8 4-6 13-7z" fill="#FBFBFB"/>
<path transform="translate(906,554)" d="m0 0h13l17 3 17 7 12 9 9 9 5 10-1 10-4 6-4 5-7 4-3 1h-12l-10-7-11-9-8-4-13-1-5 4h-3v12l2 9 3 5 16 8 13 8 16 6 11 7 17 17 7 14 3 12v9l-3 13-11 17-11 10-16 8-15 4-6 1h-36l-15-5-12-7-15-15-3-5v-9l5-10 4-4 8-3h15l10 5 8 7 7 5 8 2 13-1 9-4 5-7 1-3v-10l-4-5-16-9-5-4-13-5-14-8-12-8-6-8-6-3-7-9-5-14-2-10v-10l3-12 5-10 9-11 14-9 13-5z" fill="#FBFAFA"/>
<path transform="translate(880,809)" d="m0 0 14 1 18 4 26 9 27 13 13 8 13 9 13 11 10 9 6 5 1 5h2l3 3 19 7 1 2-15 2h-11l-44-11-36-7-22-3-16-1h-19l-24 2-22 4h-4l-1-3h-2l-1 2-1-1-18 1h-4l-7 1-9 5h-2v2l-11 8-2 3-5 3-5 4-7 4-3 1-1 2-3 2h-3v2l-13 3h-9v-2h-4v-2l-3-1-1-4 6-9v-3l-3 4-5-5-9 1-7 2-13 3-6 4h-2l-2 5h-2v2l-14 9-4 1 1-3h2v-2l8-7 8-12 8-7 6-7 5-2 1-2 4-2 12-10 30-20 11-7 15-7 12-4 11-5 9-3 9-2 3-2 7-1 6-2 18-4 18-3 9-1z" fill="#CC1C46"/>
<path transform="translate(176,816)" d="m0 0h19l17 2 21 5 16 7 13 9 7 7 9 13 6 13 2 7v11l-3 6-6 5-13 4-25 6-20 7-24 10-14 4-12 2h-23l-16-4-11-7-10-9-8-10-3-8-1-4v-20l4-13 5-8 8-10 10-8 16-9 16-5 9-2z" fill="#536ABE"/>
<path transform="translate(1273,174)" d="m0 0h11l18 2 17 4 12 4 10 5 7 4v2l4 1 18 14v2l4 2 9 11 3 4v2h2l4 7 2 8v16l3 1 1 2v7l-2 4-6 1-3-3-3-7-2-3-27-2-7 1v2h-2v2l-6 4-7 8-9 4-10-3-7-3-7-1-8-6v-2l-10-2h-39l-13-1-2-3 1-9h-9l-7 9-7 3h-11l-6-4-15-3-9-3-1-1v-6l7-11 5-5 8-11 6-9 6-10 8-7 16-8 20-7 11-3 12-2z" fill="#F99F45"/>
<path transform="translate(1332,411)" d="m0 0h17l19 3 12 3 16 6 6 4-2 4-7 1-5 3-8 4-5 5-5 3-5 6h-3l-2 4-4 4-10 4-5 3-7 4-5 5-8 2-6 9-6 3-6 1-2 6-4 6-6 7-7 5-4 6-3 2-3 7-2 10-1 31-1 22v9l4 10 6 8 3 6-1 9 3 10 1 3-3-1-6-16-1-1-2 4-8-7-4-6v-10l-5-22-2-17h-3l-2-5-3-3v-4l-3-1v-2h-2v-3l-6-1-5-3-21-2-5-1-4-4-1-7 3-23 3-14 3-9 7-15 7-11 9-10 5-2 1-3 10-8h2v-2l11-7 9-5 13-6 7-3 22-6z" fill="#EC571E"/>
<path transform="translate(236,305)" d="m0 0h7l30 9 16 7 21 11 21 14 14 11 14 12 13 12 18 18 9 11 12 14 8 10 14 14 11 9 17 13 1 4v3 3l-4 1h-8l-10 1-4-1v-2l-8-1-1-1-2 3-4-2v-3l-10 1-1-4-4-4v-3h-2l-3-4-9-4-5-5-5-1h-5l-1-2-6-2-3-2-2-1v-3h-2v-3l-8-2-7-6-5-3v-2l-4-1-4-4-5-3v-2l-7-1v-2l-4-1v-2l-3 1h-4l-2 3-9-7-10-10-9-8-13-9-13-8-16-8-15-5-7-2-9-1 2-1v-2h-2l-2-4-3-14-2-8 1-10 4-6 6-2h17l6-1z" fill="#993383"/>
<path transform="translate(896,919)" d="m0 0h26l17 3 20 7 16 8 13 10 8 8 11 15 5 11 3 14v11l-2 12-4 9-6 8-9 8-12 6-4 1h-25l-15-5-13-7-10-8-7-7-9-16-16-32-10-15-12-14-3-3 3-9 7-6 11-5 11-3z" fill="#E12B4F"/>
<path transform="translate(315,408)" d="m0 0 4 1v2l9 3 2 1v2l5 2 4 3v2l4 1v2l5 2 7 6 8 3v3h2v3l6 1 1 2 5 2v2l8-1 3 1 5 6 5 1v2l4 1 2 4h2l1 5 5 2-1 4 8-2 2 1 1 3 3 1 2-3 9 3h2v2h8l4-1h12l-2-6v-3l4 1 14 9 25 8 9 1 3 4v2h-5l-1-3 1-2h-4l-1 6-20 1-5-1v-3h-2l-2-6v-4l-10 2h-15l-4 3v23l1 9 6 3-1 10-3 9v7l3 6 7 3h13l9-1 13 3 13 1 4 1 9 1 5 2-4 1h-33l-7 4-9 4-9 6-6 8-4 7-6 18-2 3h-4v3h-2l-3 11-4 17-2 18-2 6-8 1-4-2-3-8-4-25-2-7-3-7 1-7 7-9 1-7v-11l-5-9-7-7-2-1v-2l-5-2-11-6-8-3-9-2-5-2-5-1h-20l-13 4-14 7-2-1 11-9 2-5 6-1 2 1v-2l6-1 6 1h11l9 1h5l5 3-2-9-2-6-1-14v-11l-1-4v-12l4-2h14l4-2v-4h-2l-4-4-2-5-5-5v-2l-4-2-13-12-38-38-7-5-1-7z" fill="#A23987"/>
<path transform="translate(586,404)" d="m0 0 2 2 3 14 2 2 5 28v30l-4 13-6 10-11 12-10 8-6 4-9 5-1 4 3 1 1 5 2 3 10 3 3-1 3 3 4 2h6l13 7h6l1 5-2 5-2 4v101l-2 1-2 3-1-3 1-3h-2l-4-27-2-6v-2h-6l-2-1-4-17-6-16-7-13-7-9-7-7-9-4-15-4-8-2h-6l-7-1-16-3-6-1-11 1h-10l-8-4-3-6v-7l3-9 2-10-5-1-2-2-1-9v-23l5-4h15l10-1 2 10h2v3h25v-2l-2-1 3-3h4l1 4 2-1 1-1-3-2 22-2 13-4 13-9 8-10 6-11 5-13h2l3-15 2-22z" fill="#BD2F6B"/>
<path transform="translate(968,135)" d="m0 0h11l14 3 9 5 7 7 6 10 4 14 1 11-2 14-5 14-8 14-11 13-16 13-8 7-9 12-12 22-2 4-2 1h-9l-8-7-8-10-6-13-4-13-3-16-1-18 2-16 5-19 8-16 8-13 9-9 13-8 12-5z" fill="#F36C27"/>
<path transform="translate(444,273)" d="m0 0h17l9 2 12 6 10 9 7 7 9 14 7 14 5 16 3 15 1 10v12l-2 15-5 15-6 10-10 6-8-1-8-8v-2l-4-2-11-11-17-13-11-9-13-12-9-12-7-15-2-7-1-15 2-13 4-9 6-8 13-10z" fill="#CD2C68"/>
<path transform="translate(782,1015)" d="m0 0 6 2h7l2 1 1-2 4 17 2 18 1 16v18l-3 25-5 20-8 20-7 12-8 11-15 14-10 8-10 6-15 6-15 3h-12l-12-2 1-5h2l1-2 2 1 1-4 5-7 2-9 2-3-1-2 6-13 5-10 6-7 24-36 8-13 8-16 10-21 5-13 1-11-2-9-2-4 1-4 4-3z" fill="#BA3578"/>
<path transform="translate(1208,556)" d="m0 0h8l11 3 9 6 2 3 2 27 3 45 2 23 1 5v67l-5 12-6 7-6 2h-13l-9-3-6-5-4-10-1-75-5-81v-14l8-9z" fill="#FBFBFB"/>
<path transform="translate(786,555)" d="m0 0 12 1 7 2 7 7 2 4 1 16 1 53v93l-2 9-8 9-18 6-6-1-10-4-4-5-2-8v-130l1-32 7-13 6-5z" fill="#FCFCFC"/>
<path transform="translate(686,218)" d="m0 0h52l7 1 9 3 30 16 10 7 5 5 3 6h-2l4 11 2 4 8 7 5 5 2 3 3 12 6 15 7 9 5 19 4 8v2l-5-2-4-3-6-1-3 3h-6v-2l-5-1-5-3-4-2-1-7-7 1-6-5 1-2-4-3v-4l-4-1v2h-3l-1-4v7l-3-2 4 20 1 14h-1l-5-25-1-1-2-10-8-30-5-10-11-12-9-6-9-5-13-4-11-2h-28l-5 1-16-1-4-2-3-5-5-5-3-9 2-5 5-1 1-3 12-2h15z" fill="#F5842A"/>
<path transform="translate(594,429)" d="m0 0 2 2 3 13 2 18v11l-2 10-5 13-3 9v9l1 2 5 1v2l2 1 1 3 4 2 3 2v2l3 1v2h7l2 3 1 2h8l1 3 5 1-1 2 2 1v2l6 2 5 5h5l1-1 9 2 2 2 4 1v-2l2 1v2l6 2 10-3 2 1v2h8l7-1-1 2-10 4-5 10v108l-2 9-5 10-5 5-3 1h-9l-5-3-4-6v-3h-2l-4-20v-41l1-28v-27l-3-13-6-5-9-4-7-1-8 3-9 5h-3l-1-5h-6l-13-7h-6l-8-5-4 1-9-4-3-6v-2l-2-1 1-5 9-5 10-7 12-11 8-11 5-12 1-5v-30l-3-16z" fill="#D5365D"/>
<path transform="translate(812,1423)" d="m0 0h72l38 1 26 2 40 8 35 8 2 1v9l-14 6-21 6-32 5-42 4-35 2h-161l-42-2-53-4-21-3-16-5-21-8-4-3v-2l9-4 5-3 25-6 28-5 26-3 31-2 35-1h43l-1 2-6 1-29 3-6 2h-22l-21 3h-15l-10 2h-15l-24 5-10 2-9 2v2h-3v3l10 2v2l6 1h9l9-2 1-3 6-1 4-2 14-1h6l2 1 1-4 5 2 2 4 7 4 1 3 8 3 29 3 21 1 5 1 51 2h47l53-1 27-3 22-3 8-1h7l4-2 17-3 6-3h7l-1-3-7-4-12-3-10-4-17-4-22-3-4-2-10-1h-38l-3-1h-36l-14-1z" fill="#D6D6D6"/>
<path transform="translate(394,1027)" d="m0 0 4 4 7 10 4 5 3 2v2l5 2 13 8 16 7 5 2 16 3h22l20-2 7-1-4 29v17l1 7v6l1 2-19 4-9 1h-25l-21-3-22-6-15-6-13-7-1-4 3-10-1-6 4-8 7-6 5-4 5-13-1-7-3-6v-2h-2l-11-16z" fill="#8B3C93"/>
<path transform="translate(682,250)" d="m0 0h28l18 4 12 5 11 7 10 10 7 11 3 9 2 9v5l-5 2-24 3-5 2-6 2h-16l-4-2-20-1-7-1h-9l-5-3-2-7-6-1-16-1-8-2-4-10-1-6 3-7 9-11 14-9 12-6z" fill="#F19251"/>
<path transform="translate(126,832)" d="m0 0h1v5l-3 5 13 4 5 4 15 15 7 4 22 16 4 4 2 1v2h2v2l3 1 3 5v2h2v2l5 2 6 5 11 1 7-2 7-1 1 2-20 7-24 10-14 4-12 2h-23l-16-4-11-7-10-9-8-10-3-8-1-4v-20l4-13 5-8 8-10 10-8z" fill="#2F9FD0"/>
<path transform="translate(236,305)" d="m0 0h7l30 9 16 7 21 11 8 5-3 3-2-1-3 6 2 4-1 2 4 2 4 9-1 8-1 1-4 26-2 16-8-6-8-7-5-5-8-7-13-9-13-8-16-8-15-5-7-2-9-1 2-1v-2h-2l-2-4-3-14-2-8 1-10 4-6 6-2h17l6-1z" fill="#8B3C93"/>
<path transform="translate(403,765)" d="m0 0 2 1-2 1zm4 1 2 2v5h-2l-1 2-4 2-2-1v-2h-2l-1 4-7 1-1 9 2 1-1 4 3 6 1 13 1 4v9l-1 5-2 14-4 6-1 4-4 9-5 10-2 5-3 8-5 10-7 8-5 9-5 5-9 3-5 7v7l-5 9-1 8-4 6-5 1 3-12 7-19 10-25 2-8v-35l-3-12-5-8-1-5-1-12h-2l-6-9-8-5v-2l-5-2-4-6 1-7 3-4h2l1-3h2v-4l13 2 7 1h21l16-3 13-5 11-7h3l-1 2z" fill="#5F5CB5"/>
<path transform="translate(590,407)" d="m0 0 13 7 3 4v5l9 2 4 3 16 1 12 4 11 5 17 4 30 2h12l5 2 2 4 6 3 5 5 1 5 1 2 4 2v7l2-1v2l3-1 8 1 1-2 7-2 3-3v-2l6-4 14-7h8l6 2 9 1 8 5v2h2l7 8 3 5v3h2l2 5 1 5v12l-4 14-6 10h-2l1 4 3 1v3h-3l1 7 2 2 3 7 3 8-2 3 1 6 2 4v4h2l4 8 3 2-1 10 1 4 1 6v3l-3 3h-7l-4-4v-3l-3-1-4-13-1-1-3-19-5-9-9-4-5-1v-2l-11-1v-6l4-5h2l-2-8 1-2h-3l-1-4 10-3 8-4 2-4h2l-1-3 5-5 4-8 1-3v-15l-4-7-8-8-5-3-4-1h-11l-10 4-5 4-6 10-3 1-3 5-1 5-3-1v2l-5 4-2 5-2 1-2-1v3l-7 1-4 2-6-2-2-4-1 2-6-2 1-3h-2l-1-4-2-1 4-4-2-6v-9l-2-12-3-2v-3l-5-1-4-2-25-5h-6l-5-2-5-1-12-4-24-3-10-1v-2l-13-1v-2l-3-1-4-7-2-5-4-3-1-7z" fill="#F3513F"/>
<path transform="translate(773,309)" d="m0 0 2 4 3 10 1 7 2 5 4 21 2 10v9l-3 1-10-2-3-2-2-5-2-1h-8l-4 1h-13l-13 1h-20l-6 2-1 1v15l-4 2-26 2h-6l1-2 14-3h13l5-2v-4h-2v-3l-5 2-3 3-7-4-6-2-3-6h-5l-3-8-3-4-6-3v-6l-1-3 1-3-3-2v-7l-1-5 2-1 5 2 2-9 12 2 1-4 3-1 3 1v4l8-4h14l7 2h13l10 1h3l6-3 5-3 7-2 16-2z" fill="#ED7E47"/>
<path transform="translate(207,355)" d="m0 0h11l17 5 11 5 14 7 15 10 13 10 7 6 5 5 1 3 3 1 1 3 2 1-1 2-6 1-5-2-7-2-18-6h-11l-1 6v12l3 4 1 4 1 13 5 5-1 1h-14l-16-8-1 2-2-4-2-9-7-14-6-4-12-4-10-9-4-5-8-5-10-2-7-3-7-2v-2l-6-1v-3l-2-1 1-4 5-5 5-4 16-4 17-2z" fill="#A168AB"/>
<path transform="translate(354,598)" d="m0 0h7l20 16 6 3h10l9-4 5-5 2-4 1 4-5 7h-2l-1 9 4 8 4 25 2 8 2 6 4 1 6-1 2-5 3-24 6-20 1-2h2v-3h3l-2 14-3 19v31l3 17 3 9 7 14 3 4v3l3 1 7 8 7 6 12 6 8 2h20l15-1v2l-7 2-13 3-10 1h-11l-3-3-6-3-2-4-8-6-5-2-8 1-11-6-4-5-3-1-3 6-4-4-4 8h2l5 5 4 7 5 11 2 9 4 7 3 12 1 12-2-4-4-19-4-6-5-15-3-5-5-2-9-2 1-10 2-12v-20l-4-15-6-11-9-10-14-10-22-12-5-2-17-9-9-8-3-5-1-4v-9l2-8 2-2z" fill="#953E8F"/>
<path transform="translate(1175,573)" d="m0 0 5 1 3 20 3 7v2l4 2v9h2l2 22 1 18 1 81 3 11 1 4 5 2 8 4 4 1h15l5-2 6-7 2-4 3-3 1-4 1-67 3-14 1-8h2l1-8 2-10 1-7-1-15 2-3 2 7v10l3 4v2l4 2 6 5 4 9 9 14 3 2v2l3 1 4 6 2 10 2 4 3 24 2 31v30h-2v7l-2 7-4 9-5 13-4 6-1 4h-2l-2 5-5 8-5 5-2 3h-2l-2 4-6 7-4 6h-2l-2 4-2 3h-2v2l-10 8-5 5h-2v2l-5 5-7 5-4 4-19 8-21 7-25 5-17 2-15 1h-12l-25-2-24-4-33-8-4-2 24-3 24 6 28 4 43 2 15-2 10-4 12-5 13-4 13-3 7-4h2v-2l5-5h2v-2l5-2 3-3 4-1v-2l5-4 1-2 7-4 3-1 1-3h2l2-5 7-8 7-10 8-6 5-6 4-8 5-7 2-7 1-5 7-16 1-8 1-1v-6l1-3v-32l-1-15h-2l-1-9v-8l-2-1-2-3-8-4-9-5-4-1v1l-6 1-5-3-1-1v-5h-5l-4 4-2 17v48l-5 10-3 1-1 3h-2v2l-8 4-6 2h-13l-13-3-5-4v-2h-3l-2-7v-8l1-9v-18l-1-18-2-12v-11l-1-4 1-2-2-1-2-27v-10l-2-16-2-4-3-25v-5h-3v8h-1v-11z" fill="#F35435"/>
<path transform="translate(812,1435)" d="m0 0h12l23 1 56 1 16 2 8 4-1 5-15 8-30 5-41 2-33 1-60-2-14-2-29-3-9-2-9-5v-6l1-2 7-2 28-2 36-2h22z" fill="#BDBEC0"/>
<path transform="translate(1102,202)" d="m0 0 1 3-2 5-4 5-1 5-10 14-7 10-2 4h-2l-2 6-7 9-5 12-8 10-2 4h-2l-1 6-6 21-6 9-5 4-10 5-7 8-11 11-7 8-8 6-8 3-4 6-2 5-9 3h-35l-8-1-9 3h-16l-9-3-10-6-6-4-6-8-10-8-8-4-5-7-4-11-4-15-6-7-7-17-3-12-5-5-8-7-3-3-1-4-2-9v-2l-3-6-10-7-24-13-9-5-10-3-6-1h-52l-8 1h-14l-10 2-3 3-5 3-8 7-3 5h-2l-2 4-7 5h-5l-2-3-4 1-5 4 2-4 14-12 16-10 16-8 24-8 16-3h21l19 3 20 6 19 9 12 8 14 12 10 13 10 16 12 25 11 28 8 15 9 12 12 12 10 6 16 6 13 3h21l19-4 16-7 11-7 9-8 9-6 7-6 5-9 3-3 5-3 6-11 11-17 14-23 13-23 10-14 11-14 13-15z" fill="#F3814D"/>
<path transform="translate(545,755)" d="m0 0 9 3v1l-7 2-8 4-3 2-1 8 2 29 1 36v18l-1 8 11 9 8 10 2 20v18l1 34v6l2 3 7 2 3 8 2 9 1 18h2l6 7-1 8-3 5h-2l-2 4-12 12h-2v2h-2v2l-16 12-22 13-2-1 6-5 5-3h2v-2l7-7-1-3 3-6 2-3h2l2-5 3-5h-2l1-5 4-5h-4v2l-4-1-1-9 5-6 3-3h2l-1-5-2-1-1-3-1 6h-3v2l-4-2-4-11-2-2v-9l-4-1-10-4v-3h2l-4-6-5-4 4-1-1-2h-6l-4-4v-6l4-6-1-1-4 1 1-4 2-2 1-7 1 2 6-4 5-5 5-2 3-5h4l2 7h2l-2 6-2 5 3-1 4-15 3-1v2l4 2-2 1-1 5h-2v16l2 3 3 1v2h4l1-2 1-17v-31h-2l-3-11-2-4-14-10-8-2-6-1v-2l-6 1-1-2 17-3 5-5 1-3v-40l-2-22-2-7-5-7-4-11 2-5 3-2 8-2z" fill="#B94484"/>
<path transform="translate(165,817)" d="m0 0h6l-1 2h-2v2h-2v3l12 4 7 8 4 2 2 4 3 1v2l6 2 7 6 8 7 6 7 1 4 4 2 4 5 11 7 4 4v2h2v2l4 2 4 5 1 4 3 1v1l-17 4-12 1-7 2-10-1-11-8v-2h-2l-4-7-2-1v-2h-2v-2l-5-2-5-5-15-11-7-5-5-3-5-6-8-6-5-5-13-4v-3l2-3 1-6 16-8 13-4z" fill="#487BC1"/>
<path transform="translate(968,135)" d="m0 0h11l14 3 9 5 7 7 6 10 4 14 1 11-2 14-5 14-8 14-11 13-16 13-8 7-9 12-12 22-2 4-2 1h-9l-8-7-8-10-6-13-4-13-3-16-1-18 2-16 5-19 8-16 8-13 9-9 13-8 12-5zm1 9-9 4-4 6-1 6-1 8-2 4-1 10-3 12-3 1-3 5v3h-2v2l-5 2-3 5-14 7-1 2v25l-1-5h-1l-1 13v3h2l1 7 4 3h2l9 18 4 2h6l4-3 4-14 1-4 4-2 6-4 5-8 2-1v-2l4-2 4-1 7-11 7-5 5-10 10-10 4-6 2-16v-10l-3-10-7-12-1-3-8-6-7-3z" fill="#ED7E47"/>
<path transform="translate(196,301)" d="m0 0h14l23 2 4 2-3 3-5 1h-16l-7 3-3 8 1 9 3 12 2 11h2v2l-2 1-29 2-10 2-10 3-30 15-5-2-1-1v-30l-6-15-1-1v-5h2l1-5 8-4 20-6 24-5z" fill="#7646A5"/>
<path transform="translate(1407,432)" d="m0 0 2 1-14 11-14 9-26 15-16 11-13 10-14 12-4 2v2h-2l-2 4-6 7-9 16-5 12-3 14v22l5 25 11 33 11 25 5 19 3 20 1 10v30l-4 23-6 21-8 22-12 20-13 19-3 4-5 1-4 7-9 10-14 10-16 9v-3l7-5 3-4h2v-2l5-3 5-6 5-4h2v-2l5-5 6-8 2-3h2l2-4 3-4h2l2-4 3-1 2-4 7-12h2l1-5 7-14 4-12 2-3 2-12h2l-1-4v-30l-3-35-2-16-2-4-2-10-4-6-7-6-10-16-2-6v-6l4 5 5 14-1-4-2-11 1-6-1-4-2-1-3-5-4-6-3-8v-18l2-37 1-13 2-7 3-5 10-10 7-6 6-9 3-6 11-4 7-10 9-3 8-7 7-3 8-4 9-3 7-4 9-7 1-2h3v-2l8-4h2v-3l3-2 11-1z" fill="#F26539"/>
<path transform="translate(788,834)" d="m0 0 3 2-2 5-12 7h-2l-1 5-2 3-1 6 2 1h-2l-2 4 3 1v2l-3 3 3-1 1 7h7l6-3 1 2 6 1 10-3 13-2 10 3 2 2-18 1h-4l-7 1-9 5h-2v2l-11 8-2 3-5 3-5 4-7 4-3 1-1 2-3 2h-3v2l-13 3h-9v-2h-4v-2l-3-1-1-4 6-9v-3l-3 4-5-5-9 1-7 2-13 3-6 4h-2l-2 5h-2v2l-14 9-4 1 1-3h2v-2l8-7 8-12 8-7 6-7 5-2 1-2 4-2 12-10 30-20 11-7 15-7 7-2v2l13-1z" fill="#D4224F"/>
<path transform="translate(6,526)" d="m0 0 2 1 3 7 2-1 3 4 6 11 3 1v2l5 1 2 7 3 5v2h2l7 11 2 5 6 12 13 21 9 17 6 11 2 3 4 15-1 15h4l2 4 8 5 2 4 2 1v3h2l7 8 5 6 3 3-5-1-7-3-9-7-11-8-10-9-13-12-10-11-15-20-9-14-15-26-4-12-8-35 2-1-1-18z" fill="#35B5DB"/>
<path transform="translate(537,747)" d="m0 0h5l7 8 13 1-2 2h-9l-6-2-10 2-10 3-2 6 5 12 5 7 2 14 1 13v40l-3 6-4 3-17 3-12 2-23 7-12 5-5 3-2-1 6-7 6-4 6-8 2-4-7 1h-20l-5-3-1-6 1-18 2-6 5-3h2l-1-11 2 4 1 7-2 2-5 2-2 10v14l1 4 2 1h27l2 2-1 4-1 3 11-8-2-1v-2h2l2-6 4-2v-2h7l1-4h2l-1-16-3-4v-5l-1-4-3-13v-4l-2-1-6-18-4-2 1-5v-1l-1-3h-2l-2-7h17l15-2 9-3h6v-2z" fill="#A23987"/>
<path transform="translate(1263,124)" d="m0 0h15l16 1 13 3-1 2h-3v2l-2 1-22 3-22 6-8 2-20 8h-3v2l-10 4-3 2h-3v2l-6 2v2l-8 6h-2l-1 3-5 4h-3l-1 3-5 5-2 4 2 2 7 1 2 4-4 14-3 7h-2l1-5 3-7 1-10-10-1-6-2-3-3-4-2-7 1h-9l-5 1-1 3-9 2h-2l4-8-6 1-10 9-4 3h-6-3l12-13 7-8 15-12 19-12 27-14 23-9 26-6 13-2z" fill="#F5842A"/>
<path transform="translate(594,494)" d="m0 0 2 3v7h4l1 4 3 3 5 1 1 4 8 2 2 1-1 2h-2l1 3 4-1 8 4 6 2 2 1v2l3-1v2l3-1v2l11-1h7l3-2 3-1v-4l2-2 4-1 1-5 3-1v2l3 1 2 5 4 1 5 3 4 1 3 6 2 6 2 5 4-1 1-3 3-1 2 2-1 2 5-1 5 2 5-1 6 4 1 4-1 2-1-3-2 1 1 5 3 1v2l7 4-2-4 4 2 5 4-1 2-2-1-1 2h5l-1 7h2l1 3 4 2v2l-2 1-1 3h6l1-7-1-3 1-5v-3l5-2 1 2 6-9 2 1-2 6-3 6-1 34v79l-1 46-2-2v-149l-2 10-1 9v11l-2 9-2 4-3 1-3-9-1-8-5-5-1-8h-2l-2-6-2-1 1-3-2-1-1-4-4-14-3-1v-2l-5-2-3-2-23-1-9 1-2-1v-2l-10 2-3 1-6-3-1-1-5-1-9-3-1 2-6-1-5-4v-2l-6-2v-2l-3-1v-2l-5-1v-2l-7-1-3-2v-3l-5 1-5-4v-2l-4-2-3-2v-2l-2-1-1-3h-6l-1-5v-8z" fill="#E6474A"/>
<path transform="translate(548,532)" d="m0 0 4 1-1 3 3 1 1 5 2 3 10 3 3-1 3 3 4 2h6l13 7h6l1 5-2 5-2 4v101l-2 1-2 3-1-3 1-3h-2l-4-27-2-6v-2h-6l-2-1-4-17-6-16-7-13-7-9-7-7-9-4v-2l-5-1-2-7-4-5v-6l-1-2 2-1 1-8 12-3z" fill="#CE2C68"/>
<path transform="translate(1128,187)" d="m0 0h5l-2 5-3 4 11-3 3-3 6-1h10l4-1 6 4v2h5l1 1 10 1 1 1-1 10-6 13-7 12-6 8-1 2h-2l-1 3-1-2 1-2h2l2-5 6-10 2-1 2-11-5 1-1 5-12 5-7 2-9 1-11 5-5 3-5 2-4 4-4 1 1-8-4-1v2l-3-1 1-5-6 1-2 6-7 11h-2l-2 4-6 8-6 6h-2l-2 6-5 5-5 4-3 8-3 6h-2v2h-2l-2 4-2 15-4 7-3 3h-2l-2 4-6 3-9 5-4 1v2l-4 1 3-5 3-1 2-4 10-5 5-4 5-10 5-18 2-6h2l1-4 8-10 5-12 8-11 2-4h2l2-6 13-17 4-7 1-4 5-7 1-5 5-2 5-1 13-11z" fill="#F27926"/>
<path transform="translate(1201,544)" d="m0 0 5 4 19 1 9 2 4 3 4 1v3h2l3 3 1 6 3 1 1 5h3l1 2 1 10 3 12 1 8-1 5 1 13-1 7-2 10-2 8h-2v10l-3 12-1 67-3 7h-2l-2 5-7 8-4 1h-15l-11-4-6-4-4-10-1-5-1-81-2-31v-9h-2l-1-9-4-4-3-7-2-16-1-4h-4v23l-2 9-5 3-10 4h-17l-12-2-7-4-8-1-7-6v-2l-7-2-2-2-1-5-6-2-2-3-1-9 2 1 3 8 6 4 3 5 6 3 8 7 10 2 2 1v2l23 2h10v-2l8-5 2-4 1-9-3-12-2-3 1-4 2-9 1-8 7-3h16l6-1-1-2h2zm7 12-9 3-8 9v14l5 81 1 75 4 10 8 6 7 2h14l6-3 6-8 4-10v-67l-2-16-3-38-2-37-1-9-4-5-9-5-9-2z" fill="#F36337"/>
<path transform="translate(594,429)" d="m0 0 2 2 3 13 2 18v11l-2 10-5 13-3 9v9l1 2 5 1v2l2 1 1 3 4 2 3 2v2l3 1v2h7l2 3 1 2h8l1 3 5 1-1 2 2 1v2l6 2 5 5h5l1-1 9 2 2 2 4 1v-2l2 1v2l6 2 10-3 2 1v2h8l7-1-1 2-10 4-4 5h-3-2l-1 3h-2l-2 9-3 4h-3v2h-5l-4 4h-3l-1 3h-2l-2 4v-5h-2l-1-15-3-11-5-3-8-5-5-2-7-1-8 3-9 5h-3l-1-5h-6l-13-7h-6l-8-5-4 1-9-4-3-6v-2l-2-1 1-5 9-5 10-7 12-11 8-11 5-12 1-5v-30l-3-16z" fill="#DD4560"/>
<path transform="translate(444,273)" d="m0 0h17l9 2 12 6 10 9 7 7 9 14 7 14 5 16 3 15 1 10v12l-2 15-5 15-6 10-5 2 2-5h2l2-10 1-2 1-13-2 1v-12l-3-11v-14l-2-8-3-9-3-6-2-6-3-7-3-3-6-3-9-7-1-3-4-2v-2l-4-2-5-4-3-1-1-2-7-1h-6l-3 2-1 5-2 4-1 4-3 7v11l-6 10-3 6-2 10-5 3h-3l-5-11-2-7-1-15 2-13 4-9 6-8 13-10z" fill="#BC306C"/>
<path transform="translate(308,560)" d="m0 0h6l-5 6-10 8-1 5-7 9-5 11-2 10 1 14 4 13 7 11 7 9 9 7 7 5 9 5 10 6 3 1v2l4 1 9 6 8 4 7 6 3 4v2h2l2 6h2v13l-4 8-8 7-7 3h-12l-11-4-8-5v-2h-2l-9-12-4-8h3l-2-5 1-5 3-1v-5l-4-6-2-5-3-3-3-7-7-6-3-12-9-15v-3h-2l-3-5-3-17-1-9 2-9h2v-3h2l2-6 6-10 3-1 1-7 1-3 5-5h2l1-2z" fill="#6955AC"/>
<path transform="translate(896,919)" d="m0 0h26l17 3 17 6-1 2-5 2-7-1-6 1-5-1-15 1-33 1-8 4v10h2l6 15h2v2h2l5 9v3h2v2h2l6 12 2 8v13h2l5 5v2h2l3 3v2h2l3 3v2l5 1 10 6 15 5 12 3h9l11-6 3-6 9-6h2l3-9 2-3v-12l-1-11-4-13-10-15-2-4-3-2v-2h-2l-5-6-9-6-1-7 2-2 14 9 12 11 11 14 7 14 3 14v11l-2 12-4 9-6 8-9 8-12 6-4 1h-25l-15-5-13-7-10-8-7-7-9-16-16-32-10-15-12-14-3-3 3-9 7-6 11-5 11-3z" fill="#D5375D"/>
<path transform="translate(514,1069)" d="m0 0h2l-4 29v17l1 7v6l1 2-19 4-9 1h-25l-21-3v-2h-2l-1-3 1-4 7-4 3-4h2l2-4 5-3 6-9 3-12 2-3 6-1 1-5 3-3 3-1h8v-2l20-2z" fill="#993383"/>
<path transform="translate(403,765)" d="m0 0 2 1-2 1zm4 1 2 2v5h-2l-1 2-4 2-2-1v-2h-2l-1 4-7 1-1 9 2 1-1 4 3 6 1 13 1 4v9l-1 5-2 14-4 6-1 4-4 9-5 10-2 5-3 8-5 10-7 8-5 9-5 5-9 3-5 7v7l-5 9-1 8-4 6-5 1 3-12 7-19 10-25 3-16 1-14 2-5h2l1-2h3l4-1 1-2 7-2 3-9 4-7 1-11v-16l1-4v-11l-2-4v-3l-5-2-7-3-14-4-10-1-2-2h24l16-3 13-5 11-7h3l-1 2z" fill="#6754AC"/>
<path transform="translate(9,522)" d="m0 0h11l6 8 4 8 6 16 5 12 9 16 7 14 10 13 10 10 9 12 1 3h2l9 12 8 11 5 10 2 5 11 10 16 6 7 5 4 2v2l4 2 6 8v7l-5 5-11-1-15-4-1-2h-5l-4-1-4-4v-2l-3-1-7-8-1-3h-2v-3l-3-1-3-5-8-5v-3h-4l-1-6 1-9-4-15-3-4-6-12-9-17-13-21-8-16-5-8v-2h-2l-3-6-2-3-1-5-2 2v-3h-2v-2l-3 1-6-12h-2l-2-4-2 2-3-9z" fill="#2F9FD1"/>
<path transform="translate(906,596)" d="m0 0 13 1 8 4 13 11 8 5h12l7-3 5-5 4-5 2-2 3 1 1 3 5-2 1-2 1 4-3 9-1 2h-2v3l-8 6v2h-2l-2 7h-2v2l-7 1 1 7 3 2v2h2v2h2l7 8 5 5 1 4-5 4-1 4-9-10-9-9-13-8-18-7-9-6-16-8-4-6-2-9v-10l1-2 6-3z" fill="#F3533F"/>
<path transform="translate(504,611)" d="m0 0h12l10 4 5 6 1 2 1 24-1 7-16 1-8 4-3 7v12l3 6 9 7 2 3v8l-6 5-4 1h-8l-6-5-5-7-3-14-3-21v-15l3-12 3-10 7-9 4-3z" fill="#B84585"/>
<path transform="translate(1159,245)" d="m0 0v3l-4 7-5 8-4 7-6 12-5 13-6 10-6 11-4 5-6 12-6 10-6 12-13 14-3 5-5 5-4 5-4 6-1 5 3 4v2h13l4-3 8-2 3-1h5l4 1h2l2 2 2 1v-2l8-1 9 5-1 2 3 1 1-2 8 5v2l8 2v2h-2v3l6-2 1 6-1 2 6-1 1 1 9 2 8 5 7 8 8 3 11 1 6 1 4-7 4 2-1 5h5l-2 3 6 2 7-3 9-5 18-11 16-8 3-2h4v2l-11 5-9 4-15 9-12 9-12 10h-7l-5-4-30-2-6-3-2-2-1-7-5-3-13-3-13-10-9-10v-2l-9 1-13 2h-24l-7-1h-15l-3-3 1-9-3-5 1-5 2-3h2l5-10h2v-2l2-1 3-5 8-8h2l2-4 6-9 8-13 1-3h2l2-5 6-11h2l2-5 6-10 5-9 5-12 9-16 5-9z" fill="#F27A26"/>
<path transform="translate(1311,127)" d="m0 0h7l19 4 18 6 15 7 15 8 12 8 13 10 12 11 5 4 7 8 8 8 11 16 9 17 8 22 4 20 2 29v26h-1l-1-19-7-21-8-26-2-13-5-14v-2h-2l-12-20-7-12-9-11v-2h-2l-1-4h-2l-4-6-10-6-16-6-6-2v-2l-4-2-4-5v-3l-7-2-6-4-6-2-13-3-7-2h-20l-3-3-1-4 1-1z" fill="#F89F47"/>
<path transform="translate(787,464)" d="m0 0h11l7 3 8 7 6 7 1 3v15l-4 10-4 5-8 4-14 3-7-1-8-7-8-6-3-9v-11l4-10 5-6 10-6z" fill="#FBFAFA"/>
<path transform="translate(261,311)" d="m0 0 9 2 15 6 22 11 11 7-3 3-2-1-3 6 2 4-1 2 4 2 4 9-1 8-1 1-4 26-2 16-8-6-8-7-5-5-8-7-13-9-13-8-16-8-15-5-7-2 1-2 10 1 10 4 12 6 5 1 3-1 15 7 5-1 10 5v-5h-2l-1-3 2-3 5-1-4-11-2-3 3-1 4 2-3-5 8-2 5-2-1-5-11-6-11-3-3-3h-3l-5-5-7-6-2-1z" fill="#953C8E"/>
<path transform="translate(1388,521)" d="m0 0 2 1-7 7-1 8-7 13-3 1-2 4-5 14-3 9-3 11v6h55l4 1v2l4 2 3 3 13 4 8 7 1 3 5 1 16 8 19 11 8 2 6 3 15 6 9 4 16 2 13-2 9-4h2l1-2h3v-2l6-3 11-7 5-7 5-2-2 6-6 9-5 5-6 5-12 6-10 3-7 1h-12l-16-2-19-6-20-9-20-11-21-13-14-8-17-7-15-3-18-1-14 1h-10l-1-2v-10l3-18 5-13 17-25z" fill="#F09352"/>
<path transform="translate(1305,707)" d="m0 0h1l2 31v30h-2v7l-2 7-4 9-5 13-4 6-1 4h-2l-2 5-5 8-5 5-2 3h-2l-2 4-6 7-4 6h-2l-2 4-2 3h-2v2l-10 8-5 5h-2v2l-5 5-7 5-4 4-19 8-21 7-25 5-17 2-15 1h-12l-25-2-24-4-33-8-4-2 24-3 24 6 28 4 43 2 15-2 10-4 12-5 13-4 13-3 7-4h2v-2l5-5h2v-2l5-2 3-3 4-1v-2l5-4 1-2 7-4 3-1 1-3h2l2-5 7-8 7-10 8-6 5-6 4-8 5-7 2-7 1-5 7-16 1-8 1-1v-6l1-3z" fill="#F3513E"/>
<path transform="translate(603,565)" d="m0 0 1 3-2 4-1 6v47l1 53 2 17 4 10 7 18 10 14 9 8h-3l-11-10-1-4-7-2-5-5-9 2-5 1-7 4-1-9-9-11-4-5v-12l6-12 1-5 1-41 7 1 3 8 2 14 1 13h2v4l3-4v-99l4-7z" fill="#BA3779"/>
<path transform="translate(696,206)" d="m0 0h21l19 3 20 6 19 9 12 8 14 12 10 13 6 9-1 7 4 5-1 5-5-4-8-7-3-3-1-4-2-9v-2l-3-6-10-7-24-13-9-5-10-3-6-1h-52l-8 1h-14l-10 2-3 3-5 3-8 7-3 5h-2l-2 4-7 5h-5l-2-3-4 1-5 4 2-4 14-12 16-10 16-8 24-8z" fill="#F09353"/>
<path transform="translate(1030,461)" d="m0 0 9 1 13 3 4 5 2 9v16l2 37v17l-1 16v48l1 4 1-12 2-5 1-14 1-27 1-6 4 2 7 11 7 6 4 3-7-1-7-8-5-8-1 1-1 20-1 36v18l3 1h9l1 5-1 3-9 2-12 6h-2l-2-176-8-6-8-3h-12l-8 4-5 6-2 9-1 193h-1l-2-31-1-155-1-3v-10l3-1 7-9 5-4 4-2z" fill="#F3673A"/>
<path transform="translate(759,994)" d="m0 0h19l10 5 6 9 3 6v4h-9l-4-4-3-1v-2h-8l-1-1-16 3-9 1-5 1v2l-8 4-6 4h-2l-1 3-10 7-6 4-2 2h-3v2l-3 2h-3l-2 5-2 2-2 5-5 4-4 1-1-3-4 2 2 1-1 5-4 4-4 1-2 3h-2v2l-2-1 11-16 9-11 11-13 16-16 14-11 13-8 12-5z" fill="#993483"/>
<path transform="translate(806,559)" d="m0 0 4 1 4 3 4 8 3 19 3 9 2 5 2 1 3 5 3 1 5 1 1-3 4-1 2-4 2 15 4 14 2 6h-2v-2h-2l4 9 2 3-1 2 3-1 5 3 6 5-1 3-7 1-3-2v-2l-4-1-1-4-5-5-3-6-4-1-6 3-4 4-5-2-3-6-3-11h-1l-1 107-2 6-5 6-2-1 4-5 2-13v-95l-1-49-1-16-4-6z" fill="#E64549"/>
<path transform="translate(969,144)" d="m0 0h16l10 5 5 4 10 20 1 7v12l-2 12-6 9-5 4-4 5-3 6-4 4-5 4-3 6h-2l1-7 6-5 5-6 2-9 5-5 6-4h2v-6l2-6-3-15-4-9-9-14-4-6h-11l-7 14-4 15-4 10-7 12-1 3h-2l-2 5-9 9-11 9-5 5-4 1v6h-2v-18l3-3 12-6 3-5 5-2v-2h2l1-4 3-5h2l4-18 1-7 2-4v-8l4-8 5-3z" fill="#F27926"/>
<path transform="translate(368,495)" d="m0 0h9v4l-3 13-4 1 2 6-1 4h-2v8l2 5 1 3 6 3-1 2 3 1v2l5 2 4 2 6 4 9 5 5 5 1 6 5 1 7 7v2h2v2h2l2 5 3 1 1 9 4-1 3-2 3 2-3 5h-2l-2 5-3 7h-5l-2 5h-2v-2l-7 1 1-7 2-3 1-11-1-7-2-4v-6l-8 1-7-7-2-1v-2l-5-2-11-6-8-3-9-2-5-2-5-1h-20l-13 4-14 7-2-1 11-9 2-5 6-1 2 1v-2l6-1 6 1h11l9 1h5l5 3-2-9-2-6-1-14v-11l-1-4v-12z" fill="#B34692"/>
<path transform="translate(686,218)" d="m0 0h52l7 1 9 3 17 9-2 2-12-5-10-3-6-2-12-1h-13l-22 4-5 3-1 3h3l-1 8-3-1 4 4 11 4 16 3 2 2-10-1h-28l-5 1-16-1-4-2-3-5-5-5-3-9 2-5 5-1 1-3 12-2h15z" fill="#F5853C"/>
<path transform="translate(964,140)" d="m0 0h13l3 4-6 1-8 1-6 3-4 8v8l-3 7-1 10-3 10-4 5-3 6h-2v2l-5 2-1 4-4 2-1 2-9 4h-2l-1 2-1-6v-9l5-13 4-9 3-10 3-7h2l1-3 5-5 4-5h2v-3l5-2v-2l9-5z" fill="#F4843D"/>
<path transform="translate(460,471)" d="m0 0 4 1 14 9 25 8 9 1 3 4v2h-5l-1-3 1-2h-4l-1 6-20 1-5-1v-3h-2l-2-6v-4l-10 2h-15l-4 3v23l1 9 6 3-1 10-3 9v7l3 6 7 3h13l9-1 13 3 13 1 4 1 9 1 5 2-4 1h-33l-6 3-7 1-6 2-14-1-5-5-8-7-2-9v-8l3-10v-20l-2-17v-12l4-1v-2l4-1h12l-2-6z" fill="#B84485"/>
<path transform="translate(126,832)" d="m0 0h1v5l-3 5 13 4 5 4 15 15 7 4 22 16 4 4 2 1v2h2v2l3 1 3 5v2h2v2l5 2 6 5 11 1 7-2 7-1 1 2-20 7-24 10h-2l-2-4-5-2 1-4-1-3 2-18-4-5-11-8-12-8-7-4-11-9-1-3-5-2-1-3h-12l-15 3v-7l-2-1 7-9 10-8z" fill="#3A95CF"/>
<path transform="translate(782,316)" d="m0 0 2 1v4h3v-2l4 1 2 5 3 2-1 2 5 4h7l2 4v3l13 6v2l7-2v-2l8 1 7 5 12 6 8 7-2 1-2-1v-2l-4-1-8-4-7 1v2l-7 2-12 2-4 3h-8l-5-3-6-5-5 1-5 2-1 5h-2l-3-24-4-18 1-3 2 2z" fill="#F27A26"/>
<path transform="translate(453,530)" d="m0 0 5 2 1 3 4 2 1 7h23l5 3 5 1h13l9 3v2l5-1 5 3 5 7v5l5 1-4 1-11-3-8-2h-6l-7-1-16-3-6-1-11 1h-10l-8-4-3-6v-7z" fill="#BA3578"/>
<path transform="translate(655,1011)" d="m0 0h9l-6 8-13 14-10 13-8 8-2 3-5-1-5 3-8 1-13 1-3 1h-9l-5 5-2 5-4-4 2-10v-9l3-10 2-6 2-8h1l1 9 7 6h3l1 6h5l1 5 2-1 4 1 1-2 13-4 11-9 8-4 4-3h2l1-4 5-9z" fill="#BC306C"/>
<path transform="translate(1263,124)" d="m0 0h15l1 2-25 1-13 2-7 3-42 14-8 4-5 2-2 2-2 6-3 3-11 3-12 6-17 12-10 9-10 8h-6-3l12-13 7-8 15-12 19-12 27-14 23-9 26-6 13-2z" fill="#F59E4B"/>
<path transform="translate(968,135)" d="m0 0h11l14 3 9 5 7 7 6 10 4 14 1 11-2 14-2 7-2-4v-20l-2-12-5-11-3-6v-2l-5-1v-2h-2v-2l-4-1-11-4h-18l-7 3-5 3h-2v2l-5 2v3h-2l-2 4-5 6-3 3h-2l-1 6-3 6-4 13-5 12-3 10-5 1-2-9 5-19 8-16 8-13 9-9 13-8 12-5z" fill="#F09353"/>
<path transform="translate(896,919)" d="m0 0h26l17 3 17 6-1 2-5 2-7-1-6 1-5-1-15 1-33 1-10 5-6 1-1-2-2 1 4 3 3 7 5 5 7 11-2 7-5-5-8-11-11-12 3-9 7-6 11-5 11-3z" fill="#CF3367"/>
<path transform="translate(557,582)" d="m0 0 4 2 7 10 5 2 5 1v2l10 2 9 3 1 3 1 27v40l-2 1-2 3-1-3 1-3h-2l-4-27-2-6v-2h-6l-2-1-4-17-6-16-7-13z" fill="#BC306C"/>
<path transform="translate(354,598)" d="m0 0h7l20 16 6 3 12 1-4 4h-3v2l-4 3-1 5 7 8-1 2h-6l-3 1-7-5-1 1-1 2-5-1v-2h-7v-2l-5-3-3-3 1-2 2 1v-2h-2l-3-4 1-4 2-6-2-2h2l-4-4v-2l-4 1h-3l-1-2h-2v-2l11-3z" fill="#8B3D93"/>
<path transform="translate(1106,636)" d="m0 0h9l12 4v3l5 2 4 2 9 11 1 5h2l5 14 4 9 1 4 1 34 1 19h-2l-1 8-6 6-13 5-10 1-9-1-8-5-7-11-1-2-1-30-1-14 2 1 1 3 1 33 2 8 4 6 8 5h19l9-6 4-8 1-6v-30l-2-16-5-15-6-11h2l-2-4-6-7-7-6-16-7-5-1z" fill="#F3543D"/>
<path transform="translate(815,268)" d="m0 0 4 1 11 22 14 35 8 15 9 12 12 12 10 6 16 6 13 3 20 1v1l-14 2-5 2h-16l-9-3-10-6-6-4-6-8-10-8-8-4-5-7-4-11-4-15-6-7-7-17-3-12v-6l-4-5z" fill="#F09454"/>
<path transform="translate(939,867)" d="m0 0 6 2h8l7 2 5 1 12 3 4 2 2-1 16 6 10 4 1-2 5 4v2l9 2h9v-2l-2-1 9 2 6 3v1l-15 2h-11l-44-11-36-7-22-3-16-1-2-2 9-3 14-1 1-1z" fill="#D52450"/>
<path transform="translate(1202,554)" d="m0 0h15l11 3 8 6 3 4 3 17 2 42 2 19 1 16 2 7v68l-4 10-6 8-3 3-4 1h-15l-11-4-6-4-4-10-1-5-1-81-2-31-2-27-1-14v-12l4-10 2-4zm6 2-9 3-8 9v14l5 81 1 75 4 10 8 6 7 2h14l6-3 6-8 4-10v-67l-2-16-3-38-2-37-1-9-4-5-9-5-9-2z" fill="#F28A4F"/>
<path transform="translate(34,404)" d="m0 0 4 3 1 11v38l1 12 4 17 7 21 8 16 6 11 13 19 10 15 7 11 8 9 7 10 20 26 9 11 6 8 14 8 16 5 6 3 2 2 2 8 12 5 10 8 4 6 3 4-4-2-11-12-7-4-8-3-2-2-2-8-12-5-11-3-13-8-5-5-10-13-9-11-10-14v-2l-3-1-10-15-7-7-6-10-24-36-6-10-9-19-5-17-5-21-4-28-5-5h-2l-1-3-2-2 3-7 8-7z" fill="#497AC0"/>
<path transform="translate(106,851)" d="m0 0h3v10l-2 7-1 13v12l3 8 5 4v2l5 2 2 2 6 3 5 6 5 3v2l9 1h6l9 4 11-1 4 2v2l-7 1h-23l-16-4-11-7-10-9-8-10-3-8-1-4v-20l4-13z" fill="#38B4DA"/>
<path transform="translate(451,1070)" d="m0 0 9 1 7 1 22 1v1l-11 2-3 4-1 3-6 1-3 11-2 5-6 9-6 4-7 8-3 2h-3v7l2 1-8-1-8-2 2-2 1-4h2v-9l6-3h2l1-4 4-3h2l2-6 2-3h3v-7l5-2 1-5v-3l-5-4z" fill="#953C8E"/>
<path transform="translate(786,1131)" d="m0 0 2 2-3 6-6 9-10 18v7h3l-2 4-7 6-11 2-7 3-4 2-1-7 2-3h5v-8l1-3-1-4 3-7 4-2 4-7 8-7 6-2v-2h4v-2l7-4z" fill="#BC2F6B"/>
<path transform="translate(1388,521)" d="m0 0 2 1-7 7-1 8-7 13-3 1-2 4-5 14-3 9-3 11v6h55l4 1 2 4v6l-3 1-13-4-10-2-18-1-14 1h-10l-1-2v-10l3-18 5-13 17-25z" fill="#EF9455"/>
<path transform="translate(1208,556)" d="m0 0h8l11 3 9 6 2 3 2 27 3 45 2 23 1 5v67l-5 12-6 7-6 2h-13l-9-3-1-2 7 2 16-1 5-3 5-9 1-12 1-38v-27l-1-5-2-34-2-22-1-22-4-10-6-8-9-2h-12l-7 4-4 3 2-4 6-5z" fill="#CEC8CA"/>
<path transform="translate(1336,405)" d="m0 0h17l11 2 1-1 8 1 8 4 4 1 6 4 5 1v2l10 2 2 7 2 1-1 3-3 2-11 1-3 1v3l-7 4h-3v2h-3l-2 4-8 6-11 6-2-1 6-7 6-4 5-5 4-3h2l2-4 10-4 2-2 7-1 1-3-12-6-15-5-16-3-17-1h-9l-20 2-14 4-3 1h-9l3-3 10-3 12-4 16-2z" fill="#F27926"/>
<path transform="translate(1279,125)" d="m0 0h15l5 1 1 5-13 2-19 4-15 3-6 2-16 4-10 2-6 1-1 2-2-1v2h-6l-7 1-2-6 16-6 13-4 12-5 26-5z" fill="#F27926"/>
<path transform="translate(520,614)" d="m0 0 7 4 5 5 1 24-1 7-16 1-8 4-4 4-2-5h2l1-8-1-4-1-1 1-11 1-3 5-4h2v-2l4-1 5 1-1-6-2-3z" fill="#B9377A"/>
<path transform="translate(724,208)" d="m0 0h7l19 5 15 6 15 8 12 9 9 8 10 13 6 9-1 7 4 5-1 5-5-4-8-7-3-3-1-4-2-9v-2l-3-6-10-7-24-13-9-5-10-3-6-1-4-4-10-4z" fill="#F89E47"/>
<path transform="translate(619,295)" d="m0 0 4 3 1 3-1 5v12l-2 10v14l2 11-1 4-4-9-2-10-5-6-3-12v-5l-5-2h-18v-6h2l2-6 5-4 11-1 4 1 7-1z" fill="#ED7E47"/>
<path transform="translate(1175,573)" d="m0 0 5 1 3 20 3 7v2l4 2v9h2l2 22 1 18v79l-2 12-2 2v-8l1-9v-18l-1-18-2-12v-11l-1-4 1-2-2-1-2-27v-10l-2-16-2-4-3-25v-5h-3v8h-1v-11z" fill="#F35735"/>
<path transform="translate(1102,202)" d="m0 0 1 3-2 5-4 5-1 5-10 14-7 10-2 4h-2l-2 6-7 9-5 9-4 5h-2v2l-7 6-2 7-1 6h-2v3l-3 1-5 5h-5l2-5 15-24 12-22 12-17 11-14 13-15z" fill="#F09354"/>
<path transform="translate(1465,336)" d="m0 0 8 1 1 3-12 28-8 16-8 12-9 11-18 18-5 3 3-9 5-8 10-15h2l2-5 1-2h2l1-4 7-10h2v-2h2v-2l5-5 4-9v-10l-1-1 1-7z" fill="#F79E48"/>
<path transform="translate(1046,894)" d="m0 0 18 4 14 3 22 3 39 2 1 1 10 1-3 3-25 2h-12l-25-2-24-4-33-8-4-2z" fill="#E7494A"/>
<path transform="translate(955,929)" d="m0 0 6 1 6 3v7l4 4 5 3 1 4-5-2-5-3-9-3-4-1v-2h-6l-6-2-7-1h-14l-24 3-5 1-12 2-3 1-2-4 2-5 7-3 39-1 11-1 5 1 5-1 7 1z" fill="#D52350"/>
<path transform="translate(1077,687)" d="m0 0h12l7 2 4 7v2l-5-1-7 2-12-2-5 3h-2l-2 4-4 1-1 6-1 14v18l1 6-4 5-5 1-2 5-10 3h-18l-7-6v-4l6 2 4 2h13l7-3 7-9 4-11 2-26 2-7 11-11z" fill="#F15442"/>
<path transform="translate(1030,461)" d="m0 0 9 1 9 4 3 2v2h2l2 3v6h-1l-2-6-9-6-6-2h-12l-8 4-5 6-2 9-1 193h-1l-2-31-1-155-1-3v-10l3-1 7-9 5-4 4-2z" fill="#F19150"/>
<path transform="translate(811,565)" d="m0 0 3 4 1 16 1 53v93l-2 9-5 5v-6l-1-1 1-17 1-4 1-102z" fill="#CCC6C9"/>
<path transform="translate(460,471)" d="m0 0 4 1 14 9 25 8 9 1 3 4v2h-5l-1-3 1-2h-4l-1 6-20 1-5-1v-3h-2l-2-6v-4l-10 2h-15l-4 3v23l1 9 6 3-1 4h-2l-7-9-1-16-1-7v-12l4-1v-2l4-1h12l-2-6z" fill="#BA3779"/>
<path transform="translate(1457,491)" d="m0 0h25l22 4 21 7 16 8-1 2h-10l-8-4-5-3-7-2-4-1h-11l-5-1h-11l-24-1-15-4 3-2z" fill="#F4873F"/>
<path transform="translate(728,1008)" d="m0 0m-2 1 2 1-4 9-3 8-3 3h-2l-2 4-7 7h-3v2l-3 2h-3l-2 5-2 2-2 5-5 4-4 1-1-3-4 2 2 1-1 5-4 4-4 1-2 3h-2v2l-2-1 11-16 9-11 11-13 16-16z" fill="#953E8F"/>
<path transform="translate(730,567)" d="m0 0 3 1 3 12v16l2 31 1 42-2 9-2 3h-2l-2 10-2 11h-2l1-13 2-13 1-16v-88z" fill="#D4365D"/>
<path transform="translate(650,1116)" d="m0 0 4 1 1 6-1 17 2 19-2 16-5 2-4-8-2-5-1-8v-16l3-18 1-4z" fill="#993585"/>
<path transform="translate(755,1183)" d="m0 0h7l-5 5-8 7-10 6-15 6-15 3h-12l-12-2 1-5h2l1-2 2 1 1-4 2-3h2v2l5 4 2-1 3 2 6-1 2 1v-2l8 1 5-3 3-1 1-2h3v-2l12-6z" fill="#B84887"/>
<path transform="translate(865,936)" d="m0 0 3 1v2h2l1-2 2 1 1-2v2h2v9h2l6 15h2v2h2l5 9v3h2v2h2l6 12 2 8v13h2l2 4h-6l-22-44 2-7-8-12-1-3-3-1-2-4v-3l-4-2z" fill="#D5385D"/>
<path transform="translate(1595,625)" d="m0 0 1 2-6 11-4 5-9 7-12 6-10 3h-18l-13-2-9-5h-2v-2l-5-1-4-1v-2h-5l-6-5-3-3 5 1 6 3 15 6 9 4 16 2 13-2 9-4h2l1-2h3v-2l6-3 11-7 5-7z" fill="#F4853F"/>
<path transform="translate(514,1069)" d="m0 0h2l-4 29-1 15-4-2-1-2-2 2-1-2v-10l-6 3-1-7 2-5-1-5-5-6v-2h3l1-3-7-1v-1l20-2z" fill="#A23886"/>
<path transform="translate(832,877)" d="m0 0 2 1-1 4-23 7-22 10-17 10h-3v-4h3l1-4 7-8 7-5h2v-2l11-6 11-2 1 1 19-1z" fill="#D5385D"/>
<path transform="translate(1550,517)" d="m0 0 4 2 11 9 13 14 10 14 7 14-2 5h-6l-5-5-6-11-7-13-10-13-7-12z" fill="#EE8045"/>
<path transform="translate(915,920)" d="m0 0 11 1 3-1 17 4 10 4-1 2-5 2-7-1-6 1-5-1-15 1-33 1-7 2v-6h9l6-2 1 1 1-2 13-2 4-2h4z" fill="#D4355D"/>
<path transform="translate(908,209)" d="m0 0 2 3 1 2 3-1 2-2 1 8 1 30-2-3-1 8-1 2 3 3 1 4 3 4 3 12 4 8 3 4-2 2-7-8-8-16-4-13-3-16-1-18 1-11z" fill="#F38250"/>
<path transform="translate(1045,464)" d="m0 0 7 1 4 5 2 9v16l2 37v17l-1 16v47h-2v22h-1l-1-68h-1v-93l-1-3h-2v-2l-4-2z" fill="#DF5E54"/>
<path transform="translate(1176,152)" d="m0 0 2 1-3 7-3 3-11 3-12 6-17 12-10 9-10 8h-6-3l12-13 7-8 4-3 5-1 5-3 5-6 5-1 14-7 9-4z" fill="#F09252"/>
<path transform="translate(445,759)" d="m0 0h3v2l4 2 9 15 5 5-3-6h2l1-2v2l3 1 2 4v6l-2 8-4 1h3v2l-4 4v11h-3l-3-4-2-10-3-12-1-5v-9h-2l-5-8z" fill="#A23886"/>
<path transform="translate(904,1015)" d="m0 0h7l1 3h2l3 3v2h2l3 3v2l5 1 10 6 15 5v2l11 2 4 2 12 1 3 2-4 1h-25l-15-5-13-7-10-8-7-7z" fill="#DA4964"/>
<path transform="translate(797,1110)" d="m0 0h4l-1 9-5 17-8 18-12 18-3 2-3-1-1-7 12-21 5-8 5-12 5-7-2-1h2l1-6z" fill="#B94786"/>
<path transform="translate(1061,271)" d="m0 0 1 2-8 11-3 5h-2l-1 6-6 21-6 9-5 4-10 3-3 1-1-4 4-10 8-12 7-2 3-1 1-3h3v-3h2v-8l3-6 3-1 2-4h2v-2l5-5z" fill="#ED7E46"/>
<path transform="translate(917,612)" d="m0 0 7 1v2l4 2 4 4 4 10-3 3 1 8-9-2-8-5-10-5v-3l-4-1 2-2 7-1-2-7 2-3z" fill="#F35435"/>
<path transform="translate(1279,561)" d="m0 0h1l1 19 5 25 11 33 9 20-1 5-4-2-4-4-3-10v-5l-1-1-4-8-3-9-1-4-3-1-5-10v-26l1-3z" fill="#F3824F"/>
<path transform="translate(1435,501)" d="m0 0 8 2h9l27 3 6 1h20l11 3v2h-12l-12-2h-30l-10 1-7 2h-6v3h-5l-1 1h-6l-2-2 3-7 2-3v-3z" fill="#F36D26"/>
<path transform="translate(646,566)" d="m0 0 4 4 2 9 1 47v19l-1 10v30l1 11h-2l-4-20v-41l1-28v-27l-2-8z" fill="#CD2C68"/>
<path transform="translate(1250,692)" d="m0 0h1l1 12v37l-5 10-3 1-1 3h-2v2l-8 4-6 2h-13l-13-3-5-4v-2h-3l-1-9 2-12 2 2 3 11 1 4 5 2 8 4 4 1h15l5-2 6-7 2-4 3-3 1-4z" fill="#F3533F"/>
<path transform="translate(1388,521)" d="m0 0 2 1-7 7-1 8-7 13-3 1-2 4-5 14-3 9-3 11v6h32v1l-7 1-28-1-1-5 1-13 1-2h2v-6l-2-3 1-7 7-11 11-16z" fill="#F48640"/>
<path transform="translate(870,867)" d="m0 0h19l14 1v2h6l-4 2-5 2-32 2-26 4-9 1-1-5 10-1 8-5 12-2z" fill="#D42650"/>
<path transform="translate(814,571)" d="m0 0 3 1 1 60v104l-2 6-5 6-2-1 4-5 2-13v-95z" fill="#DD5A5D"/>
<path transform="translate(652,645)" d="m0 0h2l1 4-2 10h2l-1 3 3 21 1 3 1 8 4 1-1 2 7 1 3-3 4-1 2-2 3 4-1 4-6 7-3 1h-9l-5-3-4-6-2-14v-31z" fill="#DC4461"/>
<path transform="translate(1202,554)" d="m0 0h15l11 3 8 6 3 4 3 17 2 42 2 19 1 16 2 7v68h-1v-63h-2l-2-10-4-49-2-37-1-9-5-5-7-4-9-2h-8l-9 3-7 8-2-1 4-8 1-3z" fill="#F2874E"/>
<path transform="translate(1407,432)" d="m0 0 2 1-14 11-14 9-26 15-16 11-5 3 2-5 2-4h2l1-3h4l1-3 19-11 8-5 5-4 1-2h3v-2l8-4h2v-3l3-2 11-1z" fill="#ED7F47"/>
<path transform="translate(921,869)" d="m0 0 23 2 3 2 8 2 10 2 7 4v2l9 1 2 3-27-5-29-5-25-2-2-2 9-3z" fill="#DE4E60"/>
<path transform="translate(331,548)" d="m0 0 12 1h9l9 1h5l5 2h3l2 1v3l7 2 9 6-4 1-12-5-9-2-5-2-5-1h-20l-13 4-14 7-2-1 11-9 2-5 6-1 2 1v-2z" fill="#974292"/>
<path transform="translate(704,1041)" d="m0 0h2l-2 6-7 6-5 8-5 4-7 11-5 5-5 6-2 1-2 4-4 3h-3l1-11 5-7h2v-2l3-3 1-2h6l2-7-2-2 2-2h3l2 2 5-3 3-1 1-6 2-2 3-4 6-2z" fill="#993383"/>
<path transform="translate(915,241)" d="m0 0h1l1 4 1-4 2 7v6h2l2 9h2l4 7 2 3h9l6-1v9l-2 4-3 2h-8l-2-2-2-4-8-15-2 1-4-5v-5l-3-1 1-4z" fill="#F26438"/>
<path transform="translate(767,631)" d="m0 0h1l1 104 1 6 4 2 5 3 16 1 7 1 4 1-18 6-6-1-10-4-4-5-2-8v-49z" fill="#CFC8CA"/>
<path transform="translate(1145,673)" d="m0 0 3 3 5 15 2 15v31l-3 9-5 8-13 7-15 1-8-5-7-11-1-2-1-30-1-14 2 1 1 3 1 33 2 8 4 6 8 5h19l9-6 4-8 1-6v-30l-2-16-5-15z" fill="#F18D50"/>
<path transform="translate(863,750)" d="m0 0 15 7 10 3h42v2l-6 1v2l-7 1-29 2-9-2-9-3v-2l-2-1h2l-7-8z" fill="#E7514D"/>
<path transform="translate(454,828)" d="m0 0 4 2v9l2 1v2l3-1 3 6 4 1h9l3 1h5l-1 2-9 2-4 1h-7l-8 1-7-1-1-1v-14l2-10z" fill="#A23886"/>
<path transform="translate(1081,904)" d="m0 0 11 1 21 1 13 1h6v-1h7l1 1 10 1-3 3-25 2h-12l-25-2-13-2v-1h13z" fill="#EA5750"/>
<path transform="translate(1030,461)" d="m0 0 9 1 9 4 3 2v2h2l2 3v6h-1l-2-6-9-6-6-2h-12l-8 4-5 6-3 3-1 15-1 153h-1l-1-155-1-3v-10l3-1 7-9 5-4 4-2z" fill="#F57F4D"/>
<path transform="translate(979,370)" d="m0 0h4l1 4v4l-5 5-8 4-10 1h-29l-3 1-5-1h-21l-6-1v-1l16-1 10-3 7 1h35l9-3 3-7z" fill="#F27A26"/>
<path transform="translate(1128,187)" d="m0 0 1 2-9 7-1 2h-2l-2 4-6 7-3 3-1 2h-2l-2 6-6 8-5 5-6 10h-2l-2 4-2 3h-2l-2 5-8 11-3 5-1-2 5-9 6-8 2-4h2l2-6 13-17 4-7 1-4 5-7 1-5 5-2 5-1 13-11z" fill="#F4843D"/>
<path transform="translate(1077,687)" d="m0 0h12l7 2 4 7v2l-5-1-7 2-12-2-5 3h-2l-2 4-4 1-3 3 1-7 11-11z" fill="#F35440"/>
<path transform="translate(684,576)" d="m0 0h1l1 79v28l-2 9-2 2v-27l-1-30 2-59z" fill="#BE447F"/>
<path transform="translate(721,945)" d="m0 0 4 1-33 33-9 11-5 6-1-3 1-10 8-7h2v-2l5-5h2v-3h2l1-3h2l1-3 4-3 5-1 10-9z" fill="#BB3873"/>
<path transform="translate(490,652)" d="m0 0 2 2v2l2 3v3l2 1 1 5 2 4-1 7-1 1v8l-2 4 1 3h-3v-2l-2-1-3-9-1-9v-15l-2-1 2-4z" fill="#BA3578"/>
<path transform="translate(429,281)" d="m0 0 2 1v4l-4 6h-2l-1 4h-3l-1 10-2 3-1 9-1 6 1 7-5 5-1-4-1-15 2-13 4-9 6-8z" fill="#BA397A"/>
<path transform="translate(995,229)" d="m0 0 6 2-6 8-17 14-8 7-9 12-4 7-2-1v-7l4-4 3-1 4-9 6-7h4l1-2h3l2-9 9-7h3z" fill="#F4814F"/>
<path transform="translate(612,561)" d="m0 0 2 1-6 2-2 5-2 6-1 114h-1l-1-11-1-53v-47l2-8 4-6z" fill="#CBC6C8"/>
<path transform="translate(368,495)" d="m0 0h9v4l-3 13-4 1 2 6-1 4h-2v8l2 5 1 3 6 3-1 4h-2v2l-5-1-3-9-1-14v-11l-1-4v-12z" fill="#B34592"/>
<path transform="translate(1389,420)" d="m0 0 6 1 8 4 4 5-1 4-11 1-3 1v3l-7 4h-3v2h-3l-2 4-8 6-11 6-2-1 6-7 6-4 5-5 4-3h2l2-4 10-4 2-2 7-1 1-3-12-6z" fill="#F36B2A"/>
<path transform="translate(1025,464)" d="m0 0h12l10 4 7 6 2 177h-2l-1-76-2-100-5-5-6-3-5-1h-8l-8 2 3-3z" fill="#C8C5C7"/>
<path transform="translate(262,842)" d="m0 0 4 1 9 11 8 15-1 6-5 1-1-4h-2l-4-8-5-7v-3h-2l-2-9z" fill="#5F5FB6"/>
<path transform="translate(771,232)" d="m0 0 5 2 16 9 6 5 4 8h-2l4 11 2 4 8 7 5 5 2 3 3 12-1 3-7-12-2-8h-2l-3-3v-2l-3-1-5-6-1-4-3-4-3-10-3-1v-2h-2v-2l-4-2-14-10z" fill="#F5853D"/>
<path transform="translate(1143,672)" d="m0 0 3 3 5 15 2 16v30l-2 9-6 8-7 4h-19l-9-6-3-4 1-2 4 5 3 1 7 1 10 2 7-1 6-2 2-4 2-5 1-22v-16l-2-16-5-14z" fill="#D0C9CB"/>
<path transform="translate(341,906)" d="m0 0 1 3 2 1h-2v2l2 1-1 7-6 8v7l-5 9-1 8-4 6-5 1 3-12 7-19z" fill="#8857B0"/>
<path transform="translate(464,737)" d="m0 0 4 2 10 7 10 4 5 1h20l15-1v2l-7 2-13 3-10 1h-11l-3-3-6-3-2-4-12-9z" fill="#953D8F"/>
<path transform="translate(1447,493)" d="m0 0 16 1h21v2h14l-1 3-8 2-34-1-15-4 3-2z" fill="#ED7E47"/>
<path transform="translate(1061,271)" d="m0 0 1 2-8 11-3 5h-2l-1 6-2 6h-2l-3 9-2 4-6 3-10 1 2-5 4-6 7-2 3-1 1-3h3v-3h2v-8l3-6 3-1 2-4h2v-2l5-5z" fill="#F4804D"/>
<path transform="translate(561,526)" d="m0 0 2 1-1 8 3 9 10 2 6 3 1 3-5 1-8-5-4 1-9-4-3-6v-2l-2-1 1-5z" fill="#D4355D"/>
<path transform="translate(1419,598)" d="m0 0 6 5 13 4 8 7 1 3 5 1-2 1-1 4-6-2-13-8-11-5z" fill="#F69C48"/>
<path transform="translate(1088,575)" d="m0 0 2 1 3 8 6 4 3 5 6 3 8 7 10 2 2 1v2l23 2h8l12-6 2-9 2 2-2 9-5 3-10 4h-17l-12-2-7-4-8-1-7-6v-2l-7-2-2-2-1-5-6-2-2-3z" fill="#F35E36"/>
<path transform="translate(1e3 523)" d="m0 0h1l1 25 1 70v13h-1l-2-10 1-6-1-6-2-34 1-43z" fill="#F3503F"/>
<path transform="translate(1089,687)" d="m0 0h8l3 4h5l2 2 2 8 1 14-2 4-1 13v13l-2-2-1-12-1-27-6-11-1-4-7-1z" fill="#D0C9CB"/>
<path transform="translate(1560,525)" d="m0 0 6 4 12 13 4 7 3 5v3h2l-1 5-3 1v-2h-3v-2h-2l-5-12-6-8-5-9z" fill="#EF9455"/>
<path transform="translate(758,887)" d="m0 0h6v3l6-2-3 4v4h-2l-3 3-6 3-1 4-5 1-1-2-5-2-1-3 5-1 1-3-3-1 1-2h7l-1-4z" fill="#CC1C46"/>
<path transform="translate(454,812)" d="m0 0 2 4 1 7-2 2-5 2-2 10v14l1 4 2 1h27l2 2-1 4-4 5-1 5v3l-14 7-2-1 6-7 6-4 6-8 2-4-7 1h-20l-5-3-1-6 1-18 2-6 5-3h2z" fill="#8F3C90"/>
<path transform="translate(603,565)" d="m0 0 1 3-2 4-1 6v97h-1l-2-41v-61l4-7z" fill="#B04F94"/>
<path transform="translate(1012,330)" d="m0 0h3l-1 8-4 6h-2v2l-5 3h-2l-2 5-9 8-3 1-2-6 8-6 11-9 5-9zm-29 28 2 1-4 4-2-1z" fill="#EF9355"/>
<path transform="translate(1423,500)" d="m0 0 3 1-3 1-1 3-4 4-2 5h-2v2l-6 3-10 1h-7l4-4 18-11z" fill="#ED834B"/>
<path transform="translate(1423,187)" d="m0 0 5 2 8 6 9 10 8 12v9l-4-2-7-14-8-9-5-5-5-6z" fill="#EF9455"/>
<path transform="translate(698,841)" d="m0 0 1 3-1 16-5 10-2 2-1 12-3 6-3-1-2-7 2-7 10-20 3-13z" fill="#D4355D"/>
<path transform="translate(372,705)" d="m0 0h2l2 6h2v13l-4 8-2 1-2-8 1-4h-3l-2-3 1-8 3-3 2 1z" fill="#8858B0"/>
<path transform="translate(995,678)" d="m0 0h2l3 10 3 6v3h2v7l-1 6-7-3-3-3-1-13 1-1 1-3z" fill="#F4513E"/>
<path transform="translate(1246,673)" d="m0 0h2v67l-6 11-6 6h-3l2-4 6-8 4-10z" fill="#F18F50"/>
<path transform="translate(1007,666)" d="m0 0h1l1 11 1 3 1 42 1 18 2 9 2 4-4-1-3-5-1-11-1-48z" fill="#ED5F48"/>
<path transform="translate(1012,161)" d="m0 0 4 2 3 11 1 11-2 14-2 7-2-4v-20l-2-12-3-8z" fill="#F4814F"/>
<path transform="translate(774,1153)" d="m0 0 2 1-7 12v7h3l-2 4-7 6-11 2h-3l6-8 6-1 2-4 3-3-2-7 2-3h4l3-5z" fill="#BA367A"/>
<path transform="translate(629,841)" d="m0 0h1v15l-2 9-1 11-2 7v6l3 8 2 9 3 7-2 2-5-6-3-12-2-6v-10l4-12 1-9 2-8z" fill="#BD2E6A"/>
<path transform="translate(896,919)" d="m0 0h26l6 1-2 2h-6l-5-2v2l-10 3-12 1h-12v-2l-2-1 11-3z" fill="#BD326D"/>
<path transform="translate(1156,721)" d="m0 0h1l1 16v11l-3 5-4 4-13 5-10 1-3-2 9-1 13-7 6-11 2-9z" fill="#F25340"/>
<path transform="translate(766,609)" d="m0 0h1v79l-1 46-2-2v-48l1-12z" fill="#EC7754"/>
<path transform="translate(1366,582)" d="m0 0 8 1 6 2 10 2 8 3v1l-5 1h-10l-19-2-2-3z" fill="#F46D27"/>
<path transform="translate(1208,556)" d="m0 0h8l11 3 9 6 1 3v21h-1l-2-13-7-12-4-3-7-1h-12l-7 4-4 3 2-4 6-5z" fill="#CEC8CA"/>
<path transform="translate(107,479)" d="m0 0 4 4 5 10 3 11 12 16-1 2-8-8-7-5-4-6-2-16-2-5z" fill="#605CB5"/>
<path transform="translate(732,574)" d="m0 0h1l1 20v67l-2 13h-1z" fill="#BA3877"/>
<path transform="translate(233,716)" d="m0 0 2 1-1 5-6 3-16 6-16 8h-2v2l-5 2h-6v2l-5-1 1-4 23-8 29-11z" fill="#497CC1"/>
<path transform="translate(751,266)" d="m0 0 4 2 8 8 6 9 8 25 6 27 2 12v7h-1l-5-25-1-1-2-10-8-30-5-10-11-12z" fill="#F5853D"/>
<path transform="translate(646,566)" d="m0 0 4 4 1 5-1 51-2 50h-1v-41l1-28v-27l-2-8z" fill="#B24C8F"/>
<path transform="translate(1236,568)" d="m0 0h2l2 27 2 30v8h-2v-9h-2l-2-22z" fill="#CBC6C8"/>
<path transform="translate(1586,576)" d="m0 0 5 4 4 8v23l-4 9-4 4-1-5 2-9 3-2 1-6h2l-3-12-2-1-1-8z" fill="#F46D27"/>
<path transform="translate(1250,692)" d="m0 0h1l1 12v37l-5 10-3 1-1 3h-2v2l-5 2 3-6 6-9 3-3 1-4z" fill="#F3523D"/>
<path transform="translate(980,941)" d="m0 0 8 6 8 8 11 15 4 8-1 2h-3v-2l-4-2-3-3-4-12-2-5-3-1-5-5-2-4-3-1z" fill="#DA4E67"/>
<path transform="translate(1457,491)" d="m0 0h25l22 4-2 2h-14l-7-2h-18l-10-1-2-2z" fill="#F4804D"/>
<path transform="translate(1296,511)" d="m0 0h5l-7 12-8 16-1-4-2-1 4-17z" fill="#F38351"/>
<path transform="translate(974,734)" d="m0 0h1v11h-2l-1 4-2 2-10 1-9 4h-6l3-2 14-8 10-9z" fill="#E9514A"/>
<path transform="translate(1360,459)" d="m0 0h7l-1 3-14 8-17 12-1-2 4-7h2l1-3h4l1-3z" fill="#F38351"/>
<path transform="translate(1042,901)" d="m0 0 24 1 5 2 5-1 7 2 3 3-4 1-16-1-22-5z" fill="#DF4C5E"/>
<path transform="translate(97,418)" d="m0 0h1l1 9v37l4 7-1 2-7-8-1-2v-10z" fill="#605CB5"/>
<path transform="translate(1058,710)" d="m0 0h1v14l-2 14-5 10-5 6v-3l4-6 1-6v-12l1-14 2-2v15h2v-9z" fill="#CFC8CA"/>
<path transform="translate(308,560)" d="m0 0h6l-5 6-10 8-1 5-4 5-3 1-5 8-1-3 5-7 3-5h2l1-7 1-3 5-5h2l1-2z" fill="#7949A6"/>
<path transform="translate(1205,892)" d="m0 0 5 1-2 2-22 8-21 5-2-1 3-3 13-4 4-2 14-2 5-2z" fill="#F26C3E"/>
<path transform="translate(580,393)" d="m0 0 2 4 1 8v17h1l-1 12-3 8h-2l1-11v-37z" fill="#F2673C"/>
<path transform="translate(1064,625)" d="m0 0 2 4 1 5h11l1 5-1 3-9 2-5 2-1-6z" fill="#F35736"/>
<path transform="translate(915,920)" d="m0 0 11 1 3-1 9 2 1 7h-4-4v-2h-9l-4-2-1-1v1h-8l-1-2 7-1z" fill="#CE2E68"/>
<path transform="translate(966,877)" d="m0 0h7l9 4 5 2 13 5 3 3-2 1-18-5-2-2-9-2v-2l-5-2z" fill="#D63B5C"/>
<path transform="translate(708,549)" d="m0 0h2l1 4-1 2h-2v3l-13 3-4-1v-2h-2v-5h2v2h3l4-4h5z" fill="#EA4E4C"/>
<path transform="translate(594,429)" d="m0 0 2 2 3 13 2 18v11l-2 10-5 13-3 3 3-9 3-10v-30l-3-16z" fill="#D6385D"/>
<path transform="translate(1101,700)" d="m0 0 2 1 1 3 1 33 2 8 4 6 5 6 4 2 14 1v1l-15 1-8-5-7-11-1-2-1-30z" fill="#F27347"/>
<path transform="translate(649,626)" d="m0 0h1l1 14v39l2 17h-2l-3-13v-35z" fill="#BD2F6B"/>
<path transform="translate(858,358)" d="m0 0 5 2 8 7 5 5 15 9 7 2 13 1 6-2h5l-4 2-5 2h-16l-9-3-10-6-6-4-6-8-8-6z" fill="#F07F47"/>
<path transform="translate(341,845)" d="m0 0 4 1 3 5 2 11v6l-2 1-1 4-1 14h-1l-1-27-3-12z" fill="#7C6DB8"/>
<path transform="translate(512,841)" d="m0 0 6 1 4 1 2 3v4l-5 2h-7l-5-2-1-2 2-1 1-3h2z" fill="#993383"/>
<path transform="translate(1066,553)" d="m0 0 4 2 7 11 7 6 4 3-7-1-7-8-5-8-1 1-1 20-1 26h-1v-46z" fill="#F35A36"/>
<path transform="translate(772,223)" d="m0 0 11 6 10 8 8 7v2l-5-2-14-9-9-7z" fill="#ED975C"/>
<path transform="translate(1296,641)" d="m0 0h2l8 17-1 5-4-2-4-4-3-10v-5z" fill="#F38150"/>
<path transform="translate(635,927)" d="m0 0 2 2 2 3 1 4-4 6-5 9-3 4h-2l1-7 6-12 1-8z" fill="#BD2E6A"/>
<path transform="translate(1030,461)" d="m0 0 9 1 9 4 3 2v2h2l2 3v6h-1l-2-6-9-6-6-2h-12l-8 4-5 6h-2l2-5 7-6 4-2z" fill="#F2874E"/>
<path transform="translate(1360,570)" d="m0 0 2 3-1 8-2 8v6h32v1l-7 1-28-1-1-5 1-13 1-2h2z" fill="#F28045"/>
<path transform="translate(1562,639)" d="m0 0 3 1-15 6-10 1-11-2-4-3h12l4 1v-2l10-1h9z" fill="#F46D27"/>
<path transform="translate(1077,687)" d="m0 0h12l7 2 1 4-4-2-7 1-5 1h-7l-6 4-4 4-2-1 10-10z" fill="#EE634B"/>
<path transform="translate(1388,434)" d="m0 0 2 1-1 3-10 6-4 2v2h-3v2l-5 4-5 5-6 2 6-8 6-4 5-5 4-3h2l2-4z" fill="#F36B2A"/>
<path transform="translate(1419,598)" d="m0 0 6 5 13 4 8 7 1 3 5 1-3 1-5-2-6-7-5-1-7-1h-7z" fill="#F4853E"/>
<path transform="translate(1031,889)" d="m0 0 9 2 6 3v1l-15 2h-11l-3-2h4l1-3h11v-2z" fill="#E12E4F"/>
<path transform="translate(1299,800)" d="m0 0h2l-3 9-6 11-8 13-1-3 4-12 4-6 7-10z" fill="#F38452"/>
<path transform="translate(403,765)" d="m0 0 2 1-2 1zm4 1 2 2v5h-2l-1 2-4 2-2-1v-2h-2l-1 4-6 1-3-3 11-7h3l-1 2z" fill="#8554B0"/>
<path transform="translate(938,922)" d="m0 0 16 5 2 2-6 3-7-1-6 1-3-1 1-5 4 3z" fill="#D4395F"/>
<path transform="translate(851,581)" d="m0 0 2 1-1 5-4 11-1 6h-2l-1 5-3-3v-6l3-7z" fill="#F24A33"/>
<path transform="translate(735,926)" d="m0 0h6l2 4-11 10h-2l-1-2-1-4z" fill="#BD346E"/>
<path transform="translate(219,820)" d="m0 0 11 2 15 6 6 3-1 2-7-1-6-4-12-2-5-3z" fill="#6166B8"/>
<path transform="translate(1090,230)" d="m0 0v3l-6 10h-2l-2 4-2 3h-2l-2 5-8 11-3 5-1-2 5-9 6-8 2-4h2l2-6 7-9z" fill="#F58341"/>
<path transform="translate(591,490)" d="m0 0h3l-1 5-6 9-9 10-6 5v-3l1-2h2v-3h2l2-4 3-3h2l2-7 4-2z" fill="#CD2C68"/>
<path transform="translate(1106,636)" d="m0 0h9l12 4v3l2 1h-3v2l-5-1-10-5h-5z" fill="#F45434"/>
<path transform="translate(1319,410)" d="m0 0h35l10 2v1l-24-1-19 1-12 2-9 1 1-2z" fill="#F46D27"/>
<path transform="translate(519,397)" d="m0 0 1 3-5 12-5 7-4 1 2-5h2l2-10 3-7z" fill="#BA4480"/>
<path transform="translate(939,867)" d="m0 0 10 3v2l17 4-1 2-10-2-9-3-2-1-15-1-5-1v-2z" fill="#D52A55"/>
<path transform="translate(10,441)" d="m0 0 3 1-3 20-3 4h-2l-1-4 4-15z" fill="#3DB3D9"/>
<path transform="translate(1058,724)" d="m0 0h1v11l-4 11-6 9-3 1v2l-9 2h-9l-7-3-1-2 6 2h13l7-3 7-9 4-11z" fill="#F28B4F"/>
<path transform="translate(1305,707)" d="m0 0h1l2 31v30h-2l-1-5z" fill="#EB4F4D"/>
<path transform="translate(372,551)" d="m0 0 4 2v3l7 2 9 6-4 1-12-5-5-2-4-3h3z" fill="#A1418E"/>
<path transform="translate(1061,271)" d="m0 0 1 2-8 11-3 5h-2l-1 6-2 6h-1v-11l3-6 3-1 2-4h2v-2l5-5z" fill="#F58340"/>
<path transform="translate(1254,126)" d="m0 0h17v1l-19 3-17 4-3-1 2-2 11-4z" fill="#F6872A"/>
<path transform="translate(1231,132)" d="m0 0 2 1-3 3-12 5-11 3h-3v-3z" fill="#F5852C"/>
<path transform="translate(705,749)" d="m0 0 1 3-4 7 1 6 2 5v8l-2 2-1-10-5-5v-7l6-7h2z" fill="#D5365D"/>
<path transform="translate(435,753)" d="m0 0 4 2 3 7 2 9 4 7 3 12 1 12-2-4-4-19-4-6-5-15z" fill="#8F3C90"/>
<path transform="translate(726,698)" d="m0 0 1 4 4 1-1 8-3 5-5-3 3-11z" fill="#ECEAEA"/>
<path transform="translate(932,381)" d="m0 0h25l1 2-3 1h-25l-7-1v-1z" fill="#EE7F45"/>
<path transform="translate(527,616)" d="m0 0 7 2 1 8-1 29h-9v-1h7v-16l-1-15z" fill="#CBC7C9"/>
<path transform="translate(367,529)" d="m0 0 2 2 2 5 1 3 6 3-1 4h-2v2l-5-1-3-9-1-8z" fill="#B04390"/>
<path transform="translate(1471,491)" d="m0 0h11l22 4-2 2h-14l-9-3-1-1-7-1z" fill="#EF9455"/>
<path transform="translate(1393,433)" d="m0 0 2 2-3 1v3l-7 4h-3v2h-3l-2 4-8 6-3-1 4-4h2v-2h3v-2l10-7 4-1v-2l4-1z" fill="#F36438"/>
<path transform="translate(779,995)" d="m0 0 6 2 5 4 5 10-4 1-4-3-1-7h-2l-2-4z" fill="#A4448D"/>
<path transform="translate(365,714)" d="m0 0 2 4 1 3h3v6l1 7-3 2v-3l-3-1 1-4-3-5z" fill="#6C5BB7"/>
<path transform="translate(1173,595)" d="m0 0 2 2-2 9-5 3-10 4h-17l-6-1v-1h13l11-1 12-6z" fill="#F35635"/>
<path transform="translate(923,601)" d="m0 0 7 2 10 9 4 3v3l-4-1-5-4-4-4-8-6z" fill="#F34D34"/>
<path transform="translate(1087,903)" d="m0 0h8l5 1 32 2 4 2h-15l-8-1-21-1-5-1z" fill="#E74648"/>
<path transform="translate(1263,844)" d="m0 0 1 2-4 6h-2l-2 4-2 3h-2v2l-10 8-3 4-2-1 1-2h2l2-4 5-5 4-2v-2l5-5z" fill="#EB4F4D"/>
<path transform="translate(464,737)" d="m0 0 4 2 10 7 10 4 8 2v2h-8l-14-7-10-8z" fill="#8F4699"/>
<path transform="translate(1242,636)" d="m0 0h2l2 9 1 28h-1l-2-10z" fill="#F18B4E"/>
<path transform="translate(677,1059)" d="m0 0 2 1v2l1 3-3 5-6 1-2 4h-2v2l-2-1 11-16z" fill="#984592"/>
<path transform="translate(848,710)" d="m0 0 1 2-2 6 3 11-3 1-2 2-2-3v-9z" fill="#D2CBCD"/>
<path transform="translate(1178,219)" d="m0 0 1 4-2 4h-2l-2 5-11 15-5 7v-3l5-9h2l2-5 6-8z" fill="#F6852A"/>
<path transform="translate(836,875)" d="m0 0 18 1-1 2-16 3h-4l-1-5z" fill="#CD294D"/>
<path transform="translate(1226,562)" d="m0 0 7 2 3 4 1 8v13h-1l-2-13-7-12z" fill="#D5D5D5"/>
<path transform="translate(587,1085)" d="m0 0h7l-1 4-13 10-3-1 4-2 1-4h2l2-5z" fill="#BF366C"/>
<path transform="translate(1525,503)" d="m0 0 6 2 10 5-1 2h-8v-2l-6-1-4-5z" fill="#F79C46"/>
<path transform="translate(915,211)" d="m0 0 2 4 1 34-2-3-2-18v-13z" fill="#ED7E47"/>
<path transform="translate(1234,874)" d="m0 0 1 2-5 5-7 5-4 4-8 3 2-4 10-7 8-6z" fill="#EB564D"/>
<path transform="translate(473,868)" d="m0 0 1 4v3l-14 7-2-1 6-7 6-4z" fill="#943B8E"/>
<path transform="translate(465,775)" d="m0 0 1 2 3 1 2 4v6l-2 8-3-1 1-5-3-11-1-2h2z" fill="#A33987"/>
<path transform="translate(920,1026)" d="m0 0h2v2l5 1 10 6 6 2v1l-10-1-7-3-5-4z" fill="#D5365D"/>
<path transform="translate(1154,706)" d="m0 0h1v31l-3 9-5 8-3-1 4-5 3-6 2-6z" fill="#F3864E"/>
<path transform="translate(1416,507)" d="m0 0 3 1-3 6h-2v2l-6 3-10 1h-7l1-2h14l1-3 8-5z" fill="#F4853D"/>
<path transform="translate(1490,638)" d="m0 0 5 1 6 3 11 4 1 4-5-1-4-1v-2h-5l-6-5z" fill="#F08043"/>
<path transform="translate(524,640)" d="m0 0 2 1 1 5 1 4-5 1h-5l-1-4 2-1 1-3 3-1z" fill="#BA4484"/>
<path transform="translate(568,464)" d="m0 0h1v5l-2 1-3 5-1 4-5 3-1 1h-6l5-5 6-5z" fill="#B93F7E"/>
<path transform="translate(324,1032)" d="m0 0 4 1 3 10 2 2 3 10 1 4-3-3-8-17z" fill="#8A5AAF"/>
<path transform="translate(797,461)" d="m0 0 6 2 13 12v3l-9-9-5-3-15-2 2-2z" fill="#F27E48"/>
<path transform="translate(1419,412)" d="m0 0 2 1-5 11-3 6-4 2 1-5 5-10z" fill="#F48640"/>
<path transform="translate(1016,1441)" d="m0 0 9 2v9l-6 3-3-1 4-3-1-7-3-1z" fill="#FDFDFD"/>
<path transform="translate(774,1153)" d="m0 0 2 1-7 12-2 3-2-1-1-6 2-3h4l3-5z" fill="#BB3578"/>
<path transform="translate(722,713)" d="m0 0 3 1-2 5-6 12-5 3 2-5z" fill="#C43773"/>
<path transform="translate(730,567)" d="m0 0 3 1 3 12v13l-2 2-1-1-1-20z" fill="#D4375E"/>
<path transform="translate(465,395)" d="m0 0 5 1 5 4 4 6 4 3v2l4 2 2 4-4-2v-2l-4-2-11-11z" fill="#DA6871"/>
<path transform="translate(773,751)" d="m0 0 9 2 6 1 10-2-1 2h-5v2l-8 2h-5l-1-4h-3v-2z" fill="#E45D5A"/>
<path transform="translate(1550,517)" d="m0 0 4 2 6 5 2 9 1 4-4-4-7-12z" fill="#F38741"/>
<path transform="translate(892,712)" d="m0 0 8 5v2l21 2v1l-13 1-9-3-8-6z" fill="#ED664B"/>
<path transform="translate(1553,537)" d="m0 0 5 2 3 3v2l4 2 4 4-1 3-11-9-2-2v-3h-2z" fill="#F46D27"/>
<path transform="translate(1014,188)" d="m0 0 4 1 1 1-1 9-2 7-2-4z" fill="#F09152"/>
<path transform="translate(429,730)" d="m0 0 5 5v5l-2-1v2h2v2l-3 1-3-3v-2h-2z" fill="#A23886"/>
<path transform="translate(1088,575)" d="m0 0 2 1 3 8 6 4 4 7 4 2-2 1-5-2-2-2-1-5-6-2-2-3z" fill="#F35935"/>
<path transform="translate(461,548)" d="m0 0h2v2h2l1-2 8 5v2h2l-1 2-8-1-5-5z" fill="#BD2F6B"/>
<path transform="translate(722,941)" d="m0 0h5l-1 4h-5l-2 4-4 3-4-1 4-5 6-4z" fill="#D4385F"/>
<path transform="translate(1016,753)" d="m0 0 4 1 4 4 7 3-2 2h-6l-7-6z" fill="#F35640"/>
<path transform="translate(989,364)" d="m0 0 2 1-7 4-4 1-4 6-2 5-4 1 4-7 2-7 11-3z" fill="#EE7F44"/>
<path transform="translate(1010,722)" d="m0 0h1l1 18 2 9 2 4-4-1-3-5z" fill="#ED6B4D"/>
<path transform="translate(364,644)" d="m0 0 5 2 12 6v3l-6-2-7-4-5-2z" fill="#A65194"/>
<path transform="translate(830,314)" d="m0 0 5 5 3 7 3 12-1 3-6-15-2-7z" fill="#F4843D"/>
<path transform="translate(964,264)" d="m0 0 1 2-8 13-2-1v-7l4-4z" fill="#F28554"/>
<path transform="translate(1020,754)" d="m0 0h7v2l19-2-3 3-4 1h-13l-6-3z" fill="#D0C9CB"/>
<path transform="translate(676,701)" d="m0 0h2l-2 4-5 3h-9l-4-2v-1h8l10-2z" fill="#C23775"/>
<path transform="translate(1017,327)" d="m0 0 1 2 1 3 4-2 4 1-6 3-7 8-1-4 2-9z" fill="#F48346"/>
<path transform="translate(403,765)" d="m0 0 2 1-2 1zm-1 2m-2 1 2 1-3 4-2 5-6 1-3-3 11-7z" fill="#7A5CAD"/>
<path transform="translate(589,500)" d="m0 0 1 2-6 9h-2l-1 3h-2v2h-2v2l-6 4-2-1 15-14z" fill="#D5365D"/>
<path transform="translate(569,1446)" d="m0 0 2 1 1 5 4 2-1 2-10-4-2-4z" fill="#FCFCFC"/>
<path transform="translate(832,877)" d="m0 0 2 1-1 4-9 2-1-3-5-1v-1l12-1z" fill="#D13765"/>
<path transform="translate(500,301)" d="m0 0h2l9 15-1 2-6-4-1-1v-6l-3-4z" fill="#BB4280"/>
<path transform="translate(1009,1018)" d="m0 0h3l-1 5-5 9-3-1 2-5 1-5h3z" fill="#DC4B62"/>
<path transform="translate(814,571)" d="m0 0 3 1v37h-1l-1-27z" fill="#CE3562"/>
<path transform="translate(270,850)" d="m0 0h2l5 7v5l-4-1-4-8z" fill="#6B59AE"/>
<path transform="translate(484,646)" d="m0 0h1v13h2l1 23h-1l-3-21z" fill="#B04E95"/>
<path transform="translate(1297,413)" d="m0 0h4l-1 4-5 2h-9l3-3z" fill="#F27526"/>
<path transform="translate(1143,164)" d="m0 0 2 1-7 6-5 5-4 2-2-2 13-10z" fill="#F3A154"/>
<path transform="translate(879,960)" d="m0 0 4 2 1 4-2 5-5-5-1-3 3-1z" fill="#BD3670"/>
<path transform="translate(1581,641)" d="m0 0h5v2l-9 7-5 2 3-5h2l2-4z" fill="#EF9456"/>
<path transform="translate(296,576)" d="m0 0 2 1-2 4-2 3-3 1-5 8-1-3 5-7 3-5z" fill="#7547A5"/>
<path transform="translate(343,736)" d="m0 0 9 2 1 3h5v1h-11l-7-2 3-1z" fill="#705BB6"/>
<path transform="translate(1540,511)" d="m0 0 6 2 4 4-5 1-10-5v-1z" fill="#F58732"/>
<path transform="translate(612,561)" d="m0 0 2 1-6 2-2 5-4 9h-1v-6l5-8z" fill="#CAC6C8"/>
<path transform="translate(933,610)" d="m0 0 7 6 4 2 1-3 3 2v3l-5 1v-2l-6-1v-2l-3-1z" fill="#F35837"/>
<path transform="translate(648,676)" d="m0 0 1 3h2l2 17h-2l-3-13z" fill="#BA437F"/>
<path transform="translate(1202,554)" d="m0 0h15v1l-15 2-7 4-3 3 2-5 1-3z" fill="#F17E4A"/>
<path transform="translate(424,359)" d="m0 0 4 2 13 13-1 2-10-9z" fill="#B96294"/>
<path transform="translate(887,925)" d="m0 0h7l-1 4-1-2-7 3h-7v-2z" fill="#CE2C68"/>
<path transform="translate(802,879)" d="m0 0 2 2-6 3-4 4h-6v-2l11-6z" fill="#CE2C68"/>
<path transform="translate(231,764)" d="m0 0h7l6 3h2l3 4-2 1-16-7z" fill="#4E84C3"/>
<path transform="translate(1144,755)" d="m0 0 2 1-8 6-10 1-3-2 9-1z" fill="#F15242"/>
<path transform="translate(511,687)" d="m0 0 5 3 3 4v8l-4 3 1-10-5-6z" fill="#A24F95"/>
<path transform="translate(990,645)" d="m0 0 2 3 3 1-2 7h-3v-3l-2-1 1-5z" fill="#F4513F"/>
<path transform="translate(394,1027)" d="m0 0 4 4 7 10 4 5-3 1-11-16z" fill="#953C8E"/>
<path transform="translate(944,871)" d="m0 0 7 1 15 4-1 2-10-2-9-3z" fill="#D5365D"/>
<path transform="translate(597,467)" d="m0 0h1v13l-3 10h-1v-8l2-6z" fill="#CE2C68"/>
<path transform="translate(1353,461)" d="m0 0 3 1-10 6-9 2 3-3 5-2z" fill="#F36A2C"/>
<path transform="translate(799,891)" d="m0 0 4 1-16 8-3 1 1-4 5-3 5-1z" fill="#E05861"/>
<path transform="translate(787,464)" d="m0 0h11l7 3-2 1-2-1h-10l-1-1-9 1 2-2z" fill="#D0C9CB"/>
<path transform="translate(868,368)" d="m0 0 5 5 14 8-4 1-11-7-4-4z" fill="#F27A26"/>
<path transform="translate(969,245)" d="m0 0m-1 1 1 2-1 3-5 5-2 3h-3l2-5h2l2-4z" fill="#F27926"/>
<path transform="translate(980,941)" d="m0 0 8 6 4 4v2l-4-1-4-4v-2l-3-1z" fill="#DA5268"/>
<path transform="translate(465,784)" d="m0 0 2 3 1 7-5 1v-8z" fill="#993383"/>
<path transform="translate(372,551)" d="m0 0 4 2v6l-5-1-4-3h3z" fill="#9F3A88"/>
<path transform="translate(1094,908)" d="m0 0 8 1 3 3h-10l-3-1v-2z" fill="#E0525E"/>
<path transform="translate(817,729)" d="m0 0h1v7l-2 6-5 6-2-1 6-9z" fill="#D83B5E"/>
<path transform="translate(495,700)" d="m0 0 4 1 7 5v1h-7l-4-4z" fill="#B43A7F"/>
<path transform="translate(806,559)" d="m0 0 4 1 4 3 2 5-1 4-6-9z" fill="#DB435A"/>
<path transform="translate(848,353)" d="m0 0 5 2 5 3 6 5-2 1-2-1v-2l-4-1-6-3z" fill="#F27C2B"/>
<path transform="translate(396,663)" d="m0 0 5 2 11 11h-3l-10-9-3-2z" fill="#973989"/>
<path transform="translate(1581,549)" d="m0 0 3 1 7 11v3l-4-1v-6h-2z" fill="#F58D42"/>
<path transform="translate(476,856)" d="m0 0 4 2-1 4-6 7-1-2 5-6 1-3h-7v-1z" fill="#8E3C91"/>
<path transform="translate(1278,828)" d="m0 0 1 2-5 5h-2l-2 4-3 4-2-1 3-5h2l2-5h2v-2z" fill="#EB4F4D"/>
<path transform="translate(729,684)" d="m0 0h1v15l-1 3h-2l1-13z" fill="#E5625A"/>
<path transform="translate(1088,638)" d="m0 0 7 2 8 1 1 2-24-2 4-2z" fill="#F26D43"/>
<path transform="translate(1073,253)" d="m0 0 1 2-8 11-3 5-1-2 5-9z" fill="#F5843F"/>
<path transform="translate(319,558)" d="m0 0 4 2-13 6-2-1 7-6z" fill="#96509B"/>
<path transform="translate(480,489)" d="m0 0 4 2 2-1v5l-3 1h-3l-1-4z" fill="#BA4484"/>
<path transform="translate(1429,397)" d="m0 0 3 1-7 9-2 1v-5l3-1v-2h3z" fill="#F6922C"/>
<path transform="translate(484,283)" d="m0 0 7 6 3 4-6-2-3-3-2-4z" fill="#BA377A"/>
<path transform="translate(1072,908)" d="m0 0h16l4 3-15-1-5-1z" fill="#F0794A"/>
<path transform="translate(884,965)" d="m0 0 2 4v4l-1 4-4-5z" fill="#CE356A"/>
<path transform="translate(743,906)" d="m0 0h6l-2 3h-2v2h-5l-2-4z" fill="#CC1C46"/>
<path transform="translate(836,875)" d="m0 0h6v2l-5 2v2h-4l-1-5z" fill="#D22453"/>
<path transform="translate(1360,459)" d="m0 0 2 1-3 3-14 7 1-3z" fill="#ED7E47"/>
<path transform="translate(594,429)" d="m0 0 2 2 3 13v3h-2l-3-13z" fill="#D73A5E"/>
<path transform="translate(444,379)" d="m0 0 6 2 5 4v2l4 2-1 2-14-11z" fill="#B7518C"/>
<path transform="translate(948,266)" d="m0 0h3l-3 12h-1v-6l-2-1z" fill="#F27529"/>
<path transform="translate(766,311)" d="m0 0h5l-1 5h-6l-2-3z" fill="#F57F4D"/>
<path transform="translate(722,713)" d="m0 0 3 1-2 5-4 4 1-7z" fill="#C43369"/>
<path transform="translate(1284,611)" d="m0 0 4 1 2 9-6-5-1-4z" fill="#ED965D"/>
<path transform="translate(465,395)" d="m0 0 5 1 5 4 1 3h-3l-8-7z" fill="#CF4E74"/>
<path transform="translate(523,750)" d="m0 0h5v2l-7 2-4-1-4-2z" fill="#9B4D9A"/>
<path transform="translate(1199,749)" d="m0 0 11 6v2l-4-1-5-2z" fill="#ED5546"/>
<path transform="translate(491,629)" d="m0 0 2 2v3h-2l-2 4h-1v-7z" fill="#BA377A"/>
<path transform="translate(557,582)" d="m0 0 4 2 6 8-1 3-4-5z" fill="#B93878"/>
<path transform="translate(400,571)" d="m0 0 4 1 6 6-1 3-7-7-2-1z" fill="#9E4E97"/>
<path transform="translate(884,378)" d="m0 0 5 2 8 3v2l-9-2-4-3z" fill="#F17E4A"/>
<path transform="translate(956,259)" d="m0 0h5l-4 4-4 3h-3l2-4 3-1z" fill="#F26437"/>
<path transform="translate(466,873)" d="m0 0 2 1-4 6-6 2 6-8z" fill="#8D3C91"/>
<path transform="translate(1237,755)" d="m0 0v3l-1 2-8 1 1-3z" fill="#F15341"/>
<path transform="translate(1205,892)" d="m0 0 5 1-2 2-10 3 5-5z" fill="#EC6B53"/>
<path transform="translate(586,404)" d="m0 0 2 2 1 8-4-2v-7z" fill="#BA4484"/>
<path transform="translate(1294,125)" d="m0 0h9l8 1-4 2-8-1-5-1z" fill="#F4903D"/>
</svg>
